<svg width="44" height="44" viewBox="0 0 44 44" fill="none" xmlns="http://www.w3.org/2000/svg">
<path d="M21.9935 0C9.86769 0 0 9.86769 0 21.9935C0 34.1193 9.86769 43.9869 21.9935 43.9869C34.1193 43.9869 43.9869 34.1193 43.9869 21.9935C44 9.86769 34.1323 0 21.9935 0Z" fill="#e9ecee"/>
<path d="M32.6082 26.6057C32.3488 26.8686 32.003 27 31.668 27C31.3222 27 30.9872 26.8686 30.7278 26.6057L21.4986 17.2527L12.2695 26.6057C11.7507 27.1314 10.9078 27.1314 10.3891 26.6057C9.87032 26.08 9.87032 25.2258 10.3891 24.7001L20.5692 14.3943C21.088 13.8686 21.9309 13.8686 22.4496 14.3943L32.6298 24.7001C33.1269 25.2258 33.1269 26.08 32.6082 26.6057Z" fill="#5a5c60"/>
</svg>
