<svg width="36" height="36" viewBox="0 0 36 36" fill="none" xmlns="http://www.w3.org/2000/svg">
<path d="M18 36C27.9411 36 36 27.9411 36 18C36 8.05887 27.9411 0 18 0C8.05887 0 0 8.05887 0 18C0 27.9411 8.05887 36 18 36Z" fill="#ECEFF1"/>
<path d="M25.1529 14.3923C25.1592 14.5469 25.1654 14.7076 25.1654 14.8622C25.1654 19.6602 21.4524 25.2 14.6607 25.2C12.5749 25.2 10.6335 24.6003 9 23.5678C9.28901 23.5987 9.58429 23.6172 9.87958 23.6172C11.6073 23.6172 13.2031 23.036 14.466 22.0591C12.8513 22.0282 11.488 20.9771 11.0168 19.5365C11.2429 19.5798 11.4754 19.6045 11.7079 19.6045C12.0471 19.6045 12.3738 19.5612 12.6817 19.4747C10.9916 19.1408 9.72251 17.6754 9.72251 15.9133C9.72251 15.8948 9.72251 15.8824 9.72251 15.8639C10.2188 16.1359 10.7906 16.3028 11.3937 16.3152C10.401 15.666 9.75393 14.5531 9.75393 13.2918C9.75393 12.624 9.93613 11.9995 10.2565 11.4678C12.0785 13.6689 14.799 15.1095 17.8649 15.2641C17.8021 14.9982 17.7707 14.72 17.7707 14.4356C17.7707 12.4323 19.423 10.8 21.4649 10.8C22.5267 10.8 23.488 11.239 24.1602 11.9501C25.0021 11.7893 25.7937 11.4864 26.5037 11.0659C26.2272 11.913 25.6429 12.624 24.8827 13.0754C25.6304 12.9888 26.3403 12.7909 27 12.5003C26.4974 13.2423 25.8754 13.8791 25.1529 14.3923Z" fill="#5A5C60"/>
</svg>
