<svg width="36" height="36" viewBox="0 0 36 36" fill="none" xmlns="http://www.w3.org/2000/svg">
<path d="M18 36C27.9411 36 36 27.9411 36 18C36 8.05887 27.9411 0 18 0C8.05887 0 0 8.05887 0 18C0 27.9411 8.05887 36 18 36Z" fill="#ECEFF1"/>
<path d="M15.1751 13.7546H11.8984V23.6215H15.1751V13.7546Z" fill="#5A5C60"/>
<path d="M13.5348 12.4082H13.5138C12.4145 12.4082 11.6992 11.6508 11.6992 10.7041C11.6992 9.73634 12.4303 9 13.5558 9C14.6814 9 15.3704 9.73634 15.3914 10.7041C15.3914 11.6508 14.6814 12.4082 13.5348 12.4082Z" fill="#5A5C60"/>
<path d="M26.9991 23.6215H23.7224V18.3462C23.7224 17.0208 23.2491 16.1161 22.0604 16.1161C21.1558 16.1161 20.6141 16.7263 20.3774 17.3153C20.2932 17.5257 20.2669 17.8202 20.2669 18.1148V23.6215H16.9902C16.9902 23.6215 17.0323 14.6803 16.9902 13.7546H20.2669V15.1537C20.7035 14.4804 21.4819 13.5232 23.2228 13.5232C25.3792 13.5232 26.9991 14.9327 26.9991 17.9622V23.6215Z" fill="#5A5C60"/>
</svg>
