<?xml version="1.0" standalone="no"?>
<!DOCTYPE svg PUBLIC "-//W3C//DTD SVG 1.1//EN" "http://www.w3.org/Graphics/SVG/1.1/DTD/svg11.dtd" >
<svg>
<metadata>
Created by FontForge 20110222 at Fri Jul  4 00:54:04 2014
 By Orthosie Webhosting
Copyright 1990-2003 Bitstream Inc. All rights reserved.
</metadata>
<defs>
<font id="Geometric706BT-BlackCondensedB" horiz-adv-x="1024" >
  <font-face 
    font-family="Geometr706 BlkCn BT"
    font-weight="400"
    font-stretch="condensed"
    units-per-em="2048"
    panose-1="2 11 7 6 3 5 3 3 2 4"
    ascent="1556"
    descent="-492"
    x-height="1155"
    cap-height="1565"
    bbox="-326 -485 2210 1989"
    underline-thickness="180"
    underline-position="-111"
    unicode-range="U+0020-F002"
  />
<missing-glyph horiz-adv-x="1229" 
d="M102 -362v1806h1024v-1806h-1024zM217 -248h795v1577h-795v-1577z" />
    <glyph glyph-name=".notdef" horiz-adv-x="1229" 
d="M102 -362v1806h1024v-1806h-1024zM217 -248h795v1577h-795v-1577z" />
    <glyph glyph-name=".null" horiz-adv-x="0" 
 />
    <glyph glyph-name="nonmarkingreturn" horiz-adv-x="512" 
 />
    <glyph glyph-name="space" unicode=" " horiz-adv-x="512" 
 />
    <glyph glyph-name="exclam" unicode="!" horiz-adv-x="598" 
d="M135 133q0 65 46 111.5t112 46.5t111 -45.5t45 -112.5q0 -65 -46.5 -111.5t-109.5 -46.5q-62 0 -110 48t-48 110zM168 453l-31 1112h305l-26 -1112h-248z" />
    <glyph glyph-name="quotedbl" unicode="&#x22;" horiz-adv-x="678" 
d="M406 1438h192v-559h-192v559zM80 1438h192v-559h-192v559z" />
    <glyph glyph-name="numbersign" unicode="#" horiz-adv-x="1575" 
d="M709 848l-88 -244h251l86 244h-249zM709 1464h221l-146 -415h242l148 415h221l-148 -415h283l-74 -201h-280l-84 -242h290l-71 -200h-291l-148 -416h-221l148 416h-244l-149 -416h-220l146 416h-287l76 200h282l86 242h-299l74 201h297z" />
    <glyph glyph-name="dollar" unicode="$" 
d="M106 356l248 68q12 -92 52 -140t104 -48q55 0 89 39t34 104q0 61 -35.5 115.5t-163.5 160.5q-172 145 -234.5 246t-62.5 219q0 149 84.5 249.5t229.5 121.5v225h141v-225q124 -18 202 -99t103 -216l-225 -80q-11 86 -47.5 132t-94.5 46q-53 0 -86.5 -36.5t-33.5 -94.5
q0 -103 181 -253q46 -37 71 -59q131 -114 184 -209.5t53 -211.5q0 -162 -81.5 -269t-225.5 -133v-237h-141v231q-146 15 -233 104.5t-112 249.5z" />
    <glyph glyph-name="percent" unicode="%" horiz-adv-x="1503" 
d="M1155 131q54 0 78 50.5t24 166.5q0 114 -24 164.5t-78 50.5q-53 0 -76.5 -50t-23.5 -165q0 -114 24 -165.5t76 -51.5zM346 928q54 0 77 49t23 166q0 115 -23.5 166t-76.5 51t-76.5 -51t-23.5 -166q0 -113 23.5 -164t76.5 -51zM37 1143q0 183 79 279t230 96t230 -96.5
t79 -278.5q0 -180 -79.5 -275.5t-229.5 -95.5q-151 0 -230 95t-79 276zM848 348q0 183 78.5 278t230.5 95q151 0 230 -95.5t79 -277.5q0 -180 -79.5 -276.5t-229.5 -96.5t-229.5 96t-79.5 277zM430 -25h-176l823 1543h170z" />
    <glyph glyph-name="ampersand" unicode="&#x26;" horiz-adv-x="1165" 
d="M567 956q62 62 89.5 109.5t27.5 91.5q0 43 -29 73t-69 30q-45 0 -75 -33t-30 -84q0 -39 20.5 -83.5t65.5 -103.5zM690 295l-203 352q-67 -44 -99 -98t-32 -125q0 -82 53.5 -140.5t129.5 -58.5q36 0 72 17t79 53zM860 0l-59 98q-75 -58 -154 -89.5t-151 -31.5
q-178 0 -291 118t-113 298q0 134 71.5 244t211.5 190q-65 107 -94 185.5t-29 146.5q0 127 96 214t238 87q146 0 235.5 -86.5t89.5 -228.5q0 -94 -62 -187t-177 -172l198 -344q32 32 59.5 66t51.5 72l166 -168q-32 -45 -72 -88t-88 -84l137 -240h-264z" />
    <glyph glyph-name="quotesingle" unicode="'" horiz-adv-x="352" 
d="M80 1438h192v-559h-192v559z" />
    <glyph glyph-name="parenleft" unicode="(" horiz-adv-x="696" 
d="M592 1538q-102 -163 -155.5 -373t-53.5 -452q0 -241 53.5 -451t155.5 -375l-170 -172q-144 199 -218.5 452t-74.5 546q0 292 74.5 544.5t218.5 450.5z" />
    <glyph glyph-name="parenright" unicode=")" horiz-adv-x="696" 
d="M104 1538l170 170q145 -201 219 -452.5t74 -542.5q0 -292 -74 -544.5t-219 -453.5l-170 172q103 165 156 375t53 451q0 238 -53 449t-156 376z" />
    <glyph glyph-name="asterisk" unicode="*" 
d="M512 1010l-154 -228l-174 123l174 217l-249 66l65 203l238 -86v260h200v-260l238 86l65 -203l-249 -66l176 -217l-176 -123z" />
    <glyph glyph-name="plus" unicode="+" horiz-adv-x="1706" 
d="M752 1221h202v-510h498v-199h-498v-512h-202v512h-498v199h498v510z" />
    <glyph glyph-name="comma" unicode="," horiz-adv-x="512" 
d="M10 -205l137 500h275l-178 -500h-234z" />
    <glyph glyph-name="hyphen" unicode="-" horiz-adv-x="664" 
d="M100 475v250h463v-250h-463z" />
    <glyph glyph-name="period" unicode="." horiz-adv-x="512" 
d="M98 133q0 65 46 111.5t112 46.5q67 0 112.5 -45.5t45.5 -112.5q0 -65 -47 -111.5t-111 -46.5q-62 0 -110 48t-48 110z" />
    <glyph glyph-name="slash" unicode="/" horiz-adv-x="569" 
d="M-100 -190l549 1785h169l-548 -1785h-170z" />
    <glyph glyph-name="zero" unicode="0" 
d="M643 754q0 315 -28.5 414.5t-102.5 99.5q-73 0 -102 -102t-29 -412q0 -312 29 -414t102 -102q74 0 102.5 99.5t28.5 416.5zM940 745q0 -398 -103.5 -584t-324.5 -186t-324.5 186t-103.5 584q0 400 103.5 586.5t324.5 186.5t324.5 -187.5t103.5 -585.5z" />
    <glyph glyph-name="one" unicode="1" 
d="M391 0v1124q-42 -33 -87 -59.5t-93 -46.5v237q129 63 218 125.5t157 137.5h88v-1518h-283z" />
    <glyph glyph-name="two" unicode="2" 
d="M55 0l459 864q57 108 74.5 163t17.5 108q0 58 -28 93.5t-74 35.5q-56 0 -85.5 -50.5t-29.5 -144.5v-33h-285v37q0 214 104 327t300 113q189 0 292 -99t103 -281q0 -97 -31 -192.5t-129 -262.5l-235 -404h354v-274h-807z" />
    <glyph glyph-name="three" unicode="3" 
d="M74 492h284v-25q0 -121 30.5 -181.5t90.5 -60.5q64 0 98.5 70.5t34.5 200.5q0 136 -32 201t-99 65q-25 0 -52 -12t-58 -37l-123 133l260 387h-373v260h799l-342 -524q4 0 13 2q35 6 46 6q110 0 182 -125.5t72 -325.5q0 -262 -116 -406.5t-326 -144.5q-186 0 -288.5 122.5
t-102.5 344.5q0 9 1 25t1 25z" />
    <glyph glyph-name="four" unicode="4" 
d="M543 512v295q0 89 8.5 190t26.5 220q-21 -57 -45 -116.5t-52 -121.5l-215 -467h277zM543 0v258h-459v270l459 965h276v-981h131v-254h-131v-258h-276z" />
    <glyph glyph-name="five" unicode="5" 
d="M111 375l261 67q4 -108 32 -160.5t83 -52.5q65 0 97 71t32 212q0 146 -34 212.5t-109 66.5q-32 0 -59 -24t-37 -62h-221v788h682v-254h-447v-299q42 45 91.5 66.5t109.5 21.5q155 0 240.5 -124t85.5 -353q0 -263 -119.5 -417t-321.5 -154q-160 0 -258 105t-108 290z" />
    <glyph glyph-name="six" unicode="6" 
d="M391 510q0 -140 30.5 -207t94.5 -67q62 0 92.5 63.5t30.5 194.5q0 127 -32 192.5t-95 65.5q-61 0 -91 -60t-30 -182zM506 963q29 14 58.5 21t62.5 7q131 0 218 -129t87 -334q0 -247 -118 -399t-308 -152q-183 0 -292.5 142t-109.5 383q0 157 44 299t151 319l223 373h320z
" />
    <glyph glyph-name="seven" unicode="7" 
d="M186 0l355 1219h-396v274h770l-421 -1493h-308z" />
    <glyph glyph-name="eight" unicode="8" 
d="M406 1116q0 -100 26 -148t80 -48q55 0 80.5 48.5t25.5 153.5q0 91 -26 136t-80 45q-53 0 -79.5 -47t-26.5 -140zM637 479q0 115 -32 174.5t-93 59.5t-93 -60t-32 -176q0 -126 31.5 -190t93.5 -64t93.5 64.5t31.5 191.5zM328 846q-106 32 -155.5 102t-49.5 187
q0 180 102.5 281.5t286.5 101.5q183 0 286 -102t103 -281q0 -117 -49.5 -187t-155.5 -102q117 -31 176.5 -129.5t59.5 -261.5q0 -227 -111 -353.5t-309 -126.5t-309 126.5t-111 353.5q0 165 59 262.5t177 128.5z" />
    <glyph glyph-name="nine" unicode="9" 
d="M643 1006q0 128 -30 189.5t-93 61.5q-60 0 -91.5 -65.5t-31.5 -190.5q0 -135 29.5 -196.5t93.5 -61.5q62 0 92.5 65t30.5 198zM528 530q-27 -13 -54.5 -19.5t-57.5 -6.5q-141 0 -226.5 127.5t-85.5 341.5q0 247 113.5 395t300.5 148q193 0 303.5 -139.5t110.5 -383.5
q0 -146 -39 -282t-152 -340l-204 -371h-320z" />
    <glyph glyph-name="colon" unicode=":" horiz-adv-x="512" 
d="M98 997q0 65 46 111.5t112 46.5q67 0 112.5 -45.5t45.5 -112.5q0 -65 -47 -111t-111 -46q-62 0 -110 47.5t-48 109.5zM98 133q0 65 46 111.5t112 46.5q67 0 112.5 -45.5t45.5 -112.5q0 -65 -47 -111.5t-111 -46.5q-62 0 -110 48t-48 110z" />
    <glyph glyph-name="semicolon" unicode=";" horiz-adv-x="512" 
d="M10 -205l137 500h275l-178 -500h-234zM121 997q0 65 46 111.5t112 46.5t111.5 -45.5t45.5 -112.5q0 -65 -47 -111t-110 -46t-110.5 47.5t-47.5 109.5z" />
    <glyph glyph-name="less" unicode="&#x3c;" horiz-adv-x="1706" 
d="M1442 1194v-219l-893 -365l893 -364v-219l-1178 485v199z" />
    <glyph glyph-name="equal" unicode="=" horiz-adv-x="1706" 
d="M254 496h1198v-199h-1198v199zM254 926h1198v-199h-1198v199z" />
    <glyph glyph-name="greater" unicode="&#x3e;" horiz-adv-x="1706" 
d="M264 1194l1178 -483v-199l-1178 -485v219l895 364l-895 365v219z" />
    <glyph glyph-name="question" unicode="?" horiz-adv-x="887" 
d="M201 133q0 65 46 111.5t111 46.5q67 0 111.5 -45.5t44.5 -112.5q0 -65 -46 -111.5t-110 -46.5q-62 0 -109.5 48t-47.5 110zM228 457q2 94 34.5 185.5t97.5 188.5q12 18 36 52q120 172 120 321q0 71 -26.5 109.5t-75.5 38.5q-61 0 -89 -61t-30 -197h-256v26
q0 233 101.5 354t295.5 121q171 0 270 -103.5t99 -281.5q0 -102 -36.5 -199.5t-127.5 -228.5q-79 -113 -109.5 -183t-38.5 -142h-265z" />
    <glyph glyph-name="at" unicode="@" horiz-adv-x="2048" 
d="M1167 272q-55 -84 -127 -123.5t-170 -39.5q-158 0 -240.5 86t-82.5 254q0 239 139.5 401t343.5 162q80 0 139 -33t97 -98l53 98h178l-147 -598q-3 -11 -5 -22.5t-2 -18.5q0 -35 24 -52.5t71 -17.5q39 0 81.5 20t79.5 56q86 80 130.5 187t44.5 235q0 240 -185.5 394.5
t-478.5 154.5q-141 0 -262.5 -34t-220.5 -101q-170 -114 -261.5 -285t-91.5 -375q0 -307 207 -490.5t553 -183.5q162 0 316.5 49t287.5 142l82 -117q-153 -115 -324.5 -173t-357.5 -58q-192 0 -353 48.5t-286 143.5q-155 121 -232 279t-77 358q0 167 52.5 318.5t154.5 275.5
q148 181 356 274t463 93q169 0 317.5 -45.5t258.5 -128.5q135 -105 201.5 -239.5t66.5 -303.5q0 -165 -65.5 -304.5t-188.5 -238.5q-70 -56 -152.5 -85.5t-171.5 -29.5q-106 0 -159.5 42t-55.5 124zM1217 700q-13 81 -57.5 123.5t-117.5 42.5q-114 0 -198 -124t-84 -298
q0 -92 40.5 -140t117.5 -48q83 0 151.5 63t93.5 164z" />
    <glyph glyph-name="A" unicode="A" horiz-adv-x="1081" 
d="M416 492h221l-72 493q-8 60 -15.5 151t-12.5 203h-19q-10 -133 -19 -233t-14 -127zM16 0l355 1565h327l346 -1565h-319l-43 254h-311l-52 -254h-303z" />
    <glyph glyph-name="B" unicode="B" horiz-adv-x="1110" 
d="M424 949q11 -2 21.5 -2.5t27.5 -0.5q102 0 158.5 51t56.5 144q0 94 -59 145t-168 51q-6 0 -18.5 -1t-18.5 -1v-386zM424 244q6 0 18 -1t17 -1q123 0 189.5 60t66.5 171q0 119 -66 180.5t-194 61.5h-31v-471zM131 0v1565h391q230 0 349.5 -97t119.5 -282q0 -134 -71 -220
t-203 -114q149 -40 225 -140.5t76 -258.5q0 -208 -131 -330.5t-357 -122.5h-399z" />
    <glyph glyph-name="C" unicode="C" horiz-adv-x="1053" 
d="M1006 420q-34 -220 -151.5 -335.5t-307.5 -115.5q-234 0 -347.5 198t-113.5 607q0 424 119 623.5t370 199.5q177 0 283.5 -99t145.5 -302l-281 -94q-11 126 -48 183.5t-106 57.5q-93 0 -131.5 -122t-38.5 -447q0 -314 37 -431.5t127 -117.5q67 0 107.5 72.5t56.5 218.5z
" />
    <glyph glyph-name="D" unicode="D" horiz-adv-x="1102" 
d="M434 244h8q149 0 211 120.5t62 419.5q0 305 -60.5 423t-208.5 118h-12v-1081zM131 0v1565h305q316 0 453 -173.5t137 -572.5q0 -425 -135.5 -622t-427.5 -197h-332z" />
    <glyph glyph-name="E" unicode="E" horiz-adv-x="901" 
d="M131 0v1565h657v-246h-354v-375h354v-242h-354v-450h354v-252h-657z" />
    <glyph glyph-name="F" unicode="F" horiz-adv-x="877" 
d="M131 0v1565h657v-246h-354v-375h354v-242h-354v-702h-303z" />
    <glyph glyph-name="G" unicode="G" horiz-adv-x="1114" 
d="M535 692v248h485v-332q0 -310 -122 -474.5t-351 -164.5q-234 0 -347.5 198t-113.5 607q0 424 119 623.5t370 199.5q163 0 262 -79t150 -248l-270 -94q-19 87 -54.5 127t-93.5 40q-93 0 -131.5 -122t-38.5 -447q0 -314 37 -431.5t127 -117.5q74 0 114 84.5t40 241.5v141
h-182z" />
    <glyph glyph-name="H" unicode="H" horiz-adv-x="1104" 
d="M131 0v1565h303v-613h238v613h303v-1565h-303v705h-238v-705h-303z" />
    <glyph glyph-name="I" unicode="I" horiz-adv-x="563" 
d="M434 0h-303v1565h303v-1565z" />
    <glyph glyph-name="J" unicode="J" horiz-adv-x="786" 
d="M-29 111l166 215q31 -54 56.5 -75.5t56.5 -21.5q51 0 75.5 60t24.5 184v1092h305v-1145q0 -216 -94.5 -333.5t-269.5 -117.5q-104 0 -183 35t-137 107z" />
    <glyph glyph-name="K" unicode="K" horiz-adv-x="1053" 
d="M131 0v1565h303v-678h15l282 678h311l-317 -695l324 -870h-324l-276 840h-15v-840h-303z" />
    <glyph glyph-name="L" unicode="L" horiz-adv-x="815" 
d="M131 0v1565h303v-1313h354v-252h-657z" />
    <glyph glyph-name="M" unicode="M" horiz-adv-x="1430" 
d="M127 0v1565h342l166 -738q24 -101 38 -181t23 -158l15 -1q14 99 29 180.5t30 141.5l191 756h335v-1565h-280l4 537q1 152 14.5 334t38.5 395h-18q-30 -165 -53.5 -285t-36.5 -176l-144 -606h-235l-148 641q-22 91 -42.5 195t-41.5 231h-18q25 -229 39 -416t16 -313
l10 -537h-274z" />
    <glyph glyph-name="N" unicode="N" horiz-adv-x="1114" 
d="M131 0v1565h303l207 -746q16 -55 49 -195.5t78 -349.5h20q-37 285 -58 504t-21 326v461h274v-1565h-297l-201 697q-4 15 -14 50q-85 291 -121 508h-18q36 -282 55 -504t19 -370v-381h-275z" />
    <glyph glyph-name="O" unicode="O" horiz-adv-x="1096" 
d="M399 791q0 -321 33.5 -442.5t114.5 -121.5q82 0 115.5 121.5t33.5 442.5q0 316 -34 440.5t-115 124.5q-82 0 -115 -120.5t-33 -444.5zM1010 752q0 -394 -115.5 -588.5t-347.5 -194.5q-236 0 -348.5 198.5t-112.5 614.5q0 417 112.5 615t348.5 198q241 0 352 -201
t111 -642z" />
    <glyph glyph-name="P" unicode="P" horiz-adv-x="1010" 
d="M131 0v1565h354q237 0 353 -130.5t116 -394.5q0 -247 -129.5 -386.5t-361.5 -139.5h-29v-514h-303zM434 1333v-577h12q98 0 148.5 74.5t50.5 218.5q0 141 -51.5 210.5t-159.5 73.5z" />
    <glyph glyph-name="Q" unicode="Q" horiz-adv-x="1096" 
d="M651 -18q-22 -7 -47 -10t-57 -3q-236 0 -348.5 198.5t-112.5 614.5q0 417 112.5 615t348.5 198q237 0 350 -198t113 -615q0 -237 -34 -396t-104 -253l125 -192l-213 -152zM399 791q0 -321 33.5 -442.5t114.5 -121.5q82 0 115.5 121.5t33.5 442.5q0 316 -34 440.5
t-115 124.5q-82 0 -115 -120.5t-33 -444.5z" />
    <glyph glyph-name="R" unicode="R" horiz-adv-x="1098" 
d="M131 0v1565h377q247 0 373.5 -111t126.5 -328q0 -150 -66 -252.5t-188 -142.5l282 -731h-315l-264 737h-29v-737h-297zM428 895q6 0 17.5 -1t17.5 -1q116 0 180 58.5t64 164.5t-63 160.5t-185 54.5h-31v-436z" />
    <glyph glyph-name="S" unicode="S" horiz-adv-x="940" 
d="M31 358l268 72q12 -98 56 -151.5t112 -53.5q60 0 97.5 43t37.5 113q0 66 -38.5 125t-176.5 176q-190 161 -257 270.5t-67 235.5q0 183 112.5 295t295.5 112q175 0 281.5 -87.5t138.5 -258.5l-248 -86q-11 95 -49.5 144t-101.5 49q-59 0 -95.5 -39t-36.5 -103
q0 -112 199 -276q48 -40 74 -61q143 -125 201.5 -230t58.5 -231q0 -206 -117.5 -326.5t-318.5 -120.5q-177 0 -288.5 102.5t-137.5 286.5z" />
    <glyph glyph-name="T" unicode="T" horiz-adv-x="829" 
d="M262 0v1303h-239v262h784v-262h-242v-1303h-303z" />
    <glyph glyph-name="U" unicode="U" horiz-adv-x="1104" 
d="M121 514v1051h303v-1053q0 -167 28.5 -228t98.5 -61q71 0 100 61.5t29 227.5v1053h303v-1051q0 -279 -105.5 -412t-326.5 -133t-325.5 133t-104.5 412z" />
    <glyph glyph-name="V" unicode="V" horiz-adv-x="934" 
d="M631 0h-320l-278 1565h315l60 -539q21 -184 35.5 -356.5t23.5 -341.5h18q16 239 31.5 411t30.5 277l78 549h293z" />
    <glyph glyph-name="W" unicode="W" horiz-adv-x="1520" 
d="M301 0l-266 1565h311l64 -580q12 -116 28.5 -305t32.5 -412h21q18 259 35.5 468.5t27.5 287.5l76 541h293l71 -615q16 -141 30.5 -314t27.5 -368h20q13 209 30 402.5t38 363.5l67 531h293l-274 -1565h-312l-77 641q-26 207 -39 357t-19 292h-20q-21 -217 -39.5 -390.5
t-30.5 -262.5l-78 -637h-311z" />
    <glyph glyph-name="X" unicode="X" horiz-adv-x="1006" 
d="M18 0l314 842l-295 723h323l95 -303q21 -72 35.5 -142.5t23.5 -142.5q10 79 28 154.5t46 154.5l96 279h309l-299 -725l314 -840h-318l-125 406q-19 60 -33 129t-24 159q-12 -86 -27 -159t-32 -132l-127 -403h-304z" />
    <glyph glyph-name="Y" unicode="Y" horiz-adv-x="1006" 
d="M358 0v639l-354 926h330l117 -410q28 -97 43 -172t24 -154q11 99 27 183t37 155l118 398h322l-358 -936v-629h-306z" />
    <glyph glyph-name="Z" unicode="Z" horiz-adv-x="891" 
d="M27 0l452 1319h-418v246h801l-444 -1319h381v-246h-772z" />
    <glyph glyph-name="bracketleft" unicode="[" horiz-adv-x="696" 
d="M186 -254v1931h422v-204h-176v-1524h176v-203h-422z" />
    <glyph glyph-name="backslash" unicode="\" horiz-adv-x="569" 
d="M670 -190h-170l-549 1785h168z" />
    <glyph glyph-name="bracketright" unicode="]" horiz-adv-x="696" 
d="M512 -254h-422v203h174v1524h-174v204h422v-1931z" />
    <glyph glyph-name="asciicircum" unicode="^" horiz-adv-x="2048" 
d="M897 1460h252l481 -561h-235l-371 371l-373 -371h-235z" />
    <glyph glyph-name="underscore" unicode="_" 
d="M0 -279h1024v-204h-1024v204z" />
    <glyph glyph-name="grave" unicode="`" 
d="M223 1573h256l174 -283h-125z" />
    <glyph glyph-name="a" unicode="a" horiz-adv-x="1008" 
d="M600 0v221q-37 -116 -95 -174.5t-136 -58.5q-136 0 -207.5 152.5t-71.5 441.5q0 301 66.5 448.5t201.5 147.5q89 0 147.5 -58t94.5 -182v217h281v-1155h-281zM614 588q0 163 -30.5 248.5t-89.5 85.5q-62 0 -89.5 -81t-27.5 -266q0 -171 28 -253t87 -82q62 0 92 85.5
t30 262.5z" />
    <glyph glyph-name="b" unicode="b" horiz-adv-x="1008" 
d="M393 588q0 -177 30.5 -262.5t92.5 -85.5q57 0 85 82.5t28 252.5q0 186 -27 266.5t-88 80.5q-59 0 -90 -85.5t-31 -248.5zM408 0h-281v1565h281v-627q36 124 94.5 182t146.5 58q136 0 202.5 -147.5t66.5 -448.5q0 -289 -71.5 -441.5t-207.5 -152.5q-78 0 -136 58.5
t-95 174.5v-221z" />
    <glyph glyph-name="c" unicode="c" horiz-adv-x="840" 
d="M815 303q-32 -159 -124.5 -243.5t-235.5 -84.5q-197 0 -290 146t-93 454q0 324 94.5 465.5t308.5 141.5q147 0 234 -82t104 -236l-250 -55q0 70 -25 108.5t-71 38.5q-58 0 -80 -78t-22 -350q0 -176 23 -244.5t79 -68.5q39 0 64 39t40 125z" />
    <glyph glyph-name="d" unicode="d" horiz-adv-x="1008" 
d="M600 0v221q-37 -116 -95 -174.5t-136 -58.5q-136 0 -207.5 152.5t-71.5 441.5q0 301 66.5 448.5t201.5 147.5q89 0 147.5 -58t94.5 -182v627h281v-1565h-281zM614 588q0 163 -30.5 248.5t-89.5 85.5q-62 0 -89.5 -81t-27.5 -266q0 -171 28 -253t87 -82q62 0 92 85.5
t30 262.5z" />
    <glyph glyph-name="e" unicode="e" horiz-adv-x="952" 
d="M346 707h274q-1 135 -35 197.5t-106 62.5q-65 0 -98 -65t-35 -195zM864 317q-37 -170 -133 -257t-250 -87q-211 0 -310 144t-99 450q0 315 99.5 463t311.5 148q201 0 303.5 -135t102.5 -400v-119h-543v-16q0 -163 32 -236t103 -73q51 0 84 45.5t43 132.5z" />
    <glyph glyph-name="f" unicode="f" horiz-adv-x="606" 
d="M172 0v940h-117v215h117v21q0 221 74.5 312t253.5 91h75v-252q-69 -2 -96.5 -32t-27.5 -103q0 -6 1 -18.5t1 -18.5h122v-215h-122v-940h-281z" />
    <glyph glyph-name="g" unicode="g" horiz-adv-x="1008" 
d="M614 588q0 163 -30.5 248.5t-89.5 85.5q-62 0 -89.5 -81t-27.5 -266q0 -171 28 -253t87 -82q62 0 92 85.5t30 262.5zM600 45v176q-37 -116 -95 -174.5t-136 -58.5q-136 0 -207.5 152.5t-71.5 441.5q0 301 66.5 448.5t201.5 147.5q89 0 147.5 -58t94.5 -182v217h281v-985
q0 -154 -12 -243t-38 -142q-52 -107 -143 -160t-221 -53q-119 0 -212 48t-144 136l211 144q23 -51 55.5 -76t77.5 -25q74 0 109.5 60.5t35.5 185.5z" />
    <glyph glyph-name="h" unicode="h" horiz-adv-x="1004" 
d="M127 2v1563h281v-572q36 84 106 134.5t156 50.5q122 0 172.5 -75t50.5 -274v-827h-281v723q0 126 -21.5 170.5t-76.5 44.5q-53 0 -79.5 -52.5t-26.5 -156.5v-729h-281z" />
    <glyph glyph-name="i" unicode="i" horiz-adv-x="541" 
d="M113 1421q0 65 45 111.5t110 46.5q67 0 112.5 -45.5t45.5 -112.5q0 -65 -47 -110t-111 -45q-62 0 -108.5 46.5t-46.5 108.5zM131 0v1155h279v-1155h-279z" />
    <glyph glyph-name="j" unicode="j" horiz-adv-x="541" 
d="M113 1421q0 65 45 111.5t110 46.5q67 0 112.5 -45.5t45.5 -112.5q0 -65 -47 -110t-111 -45q-62 0 -108.5 46.5t-46.5 108.5zM131 0v1155h279v-1104q0 -294 -78.5 -385.5t-282.5 -91.5h-6v246h8q45 0 62.5 36.5t17.5 143.5z" />
    <glyph glyph-name="k" unicode="k" horiz-adv-x="977" 
d="M127 0v1565h281v-957h10l248 547h286l-266 -534l285 -621h-303l-250 586h-10v-586h-281z" />
    <glyph glyph-name="l" unicode="l" horiz-adv-x="541" 
d="M131 0v1565h279v-1565h-279z" />
    <glyph glyph-name="m" unicode="m" horiz-adv-x="1470" 
d="M127 2v1153h266v-184q54 108 117.5 157.5t151.5 49.5q94 0 151 -52.5t64 -144.5q40 97 106 147t154 50q122 0 172.5 -75t50.5 -274v-827h-281v723q0 120 -20.5 166.5t-69.5 46.5q-54 0 -80 -50.5t-26 -156.5v-729h-279v723q0 120 -20.5 166.5t-69.5 46.5q-54 0 -80 -50.5
t-26 -156.5v-729h-281z" />
    <glyph glyph-name="n" unicode="n" horiz-adv-x="1004" 
d="M127 2v1153h266v-184q49 104 117.5 155.5t159.5 51.5q122 0 172.5 -75t50.5 -274v-827h-281v723q0 126 -21.5 170.5t-76.5 44.5q-53 0 -79.5 -52.5t-26.5 -156.5v-729h-281z" />
    <glyph glyph-name="o" unicode="o" horiz-adv-x="973" 
d="M485 211q68 0 96.5 83.5t28.5 287.5q0 201 -29 286.5t-96 85.5q-66 0 -95.5 -87t-29.5 -285q0 -199 29.5 -285t95.5 -86zM72 578q0 304 102 453t311 149q211 0 313.5 -149t102.5 -453q0 -305 -102.5 -453t-313.5 -148q-209 0 -311 148.5t-102 452.5z" />
    <glyph glyph-name="p" unicode="p" horiz-adv-x="999" 
d="M393 594q0 -177 30.5 -262.5t92.5 -85.5q58 0 86.5 82.5t28.5 251.5q0 184 -28 266t-89 82q-59 0 -90 -85.5t-31 -248.5zM127 -403v1558h266v-242q43 143 104.5 207t153.5 64q136 0 202.5 -148t66.5 -450q0 -289 -72.5 -441.5t-208.5 -152.5q-79 0 -137 58.5t-94 174.5
v-628h-281z" />
    <glyph glyph-name="q" unicode="q" horiz-adv-x="1008" 
d="M614 594q0 163 -30.5 248.5t-89.5 85.5q-62 0 -89.5 -82t-27.5 -266q0 -172 28 -253t87 -81q62 0 92 85.5t30 262.5zM879 -403h-279v628q-37 -116 -95 -174.5t-136 -58.5q-136 0 -208.5 152.5t-72.5 441.5q0 302 66.5 450t201.5 148q93 0 154.5 -64t103.5 -207v242h265
v-1558z" />
    <glyph glyph-name="r" unicode="r" horiz-adv-x="739" 
d="M127 2v1153h266v-287h13q34 152 112 232t193 80h12v-299q-13 1 -27.5 1.5t-40.5 0.5q-127 0 -187 -64t-60 -198v-619h-281z" />
    <glyph glyph-name="s" unicode="s" horiz-adv-x="854" 
d="M70 193l202 147q26 -66 65 -102.5t83 -36.5q41 0 70.5 30t29.5 72q0 73 -157 174q-23 15 -35 23q-131 84 -184.5 164t-53.5 184q0 143 102.5 238.5t256.5 95.5q113 0 200.5 -57.5t130.5 -159.5l-186 -125q-15 56 -54.5 91.5t-86.5 35.5t-76 -26.5t-29 -68.5
q0 -70 145 -159q59 -36 91 -58q108 -73 156 -150.5t48 -176.5q0 -159 -100.5 -256t-267.5 -97q-116 0 -206.5 56.5t-143.5 161.5z" />
    <glyph glyph-name="t" unicode="t" horiz-adv-x="659" 
d="M463 403q0 -106 19 -135.5t73 -29.5q5 0 15.5 1t15.5 1v-240q-54 -6 -95.5 -9t-66.5 -3q-137 0 -189.5 66.5t-52.5 273.5v612h-112v215h112v246h281v-246h123v-215h-123v-537z" />
    <glyph glyph-name="u" unicode="u" horiz-adv-x="995" 
d="M117 483v672h280v-678q0 -153 23 -209.5t78 -56.5q54 0 76 56t22 210v678h281v-672q0 -259 -93 -383.5t-286 -124.5q-194 0 -287.5 125t-93.5 383z" />
    <glyph glyph-name="v" unicode="v" horiz-adv-x="864" 
d="M293 0l-289 1155h299l64 -389q16 -109 32.5 -237.5t30.5 -270.5h21q18 169 34.5 294t28.5 183l82 420h289l-303 -1155h-289z" />
    <glyph glyph-name="w" unicode="w" horiz-adv-x="1384" 
d="M297 0l-274 1155h286l68 -444q23 -151 35 -257t18 -206h16q15 167 31.5 307t34.5 248l61 352h271l47 -352q16 -123 28.5 -262.5t22.5 -292.5h19q12 167 28 298.5t33 211.5l86 397h274l-309 -1155h-246l-75 573q-13 103 -21.5 187t-16.5 172h-20q-21 -157 -33.5 -246.5
t-15.5 -110.5l-100 -575h-248z" />
    <glyph glyph-name="x" unicode="x" horiz-adv-x="891" 
d="M0 0l293 596l-270 559h299l65 -166q17 -45 35 -111.5t35 -148.5q15 79 32.5 143.5t32.5 102.5l74 180h295l-277 -551l289 -604h-299l-82 217q-22 57 -38 125.5t-27 152.5q-17 -95 -34 -163t-34 -109l-92 -223h-297z" />
    <glyph glyph-name="y" unicode="y" horiz-adv-x="891" 
d="M205 -403l112 436l-297 1122h302l73 -422q9 -45 21 -155t24 -261h19q18 148 37 267.5t34 187.5l88 383h281l-418 -1558h-276z" />
    <glyph glyph-name="z" unicode="z" horiz-adv-x="797" 
d="M23 0l391 932h-340v223h710l-378 -917h348v-238h-731z" />
    <glyph glyph-name="braceleft" unicode="{" 
d="M883 1477v-209q-9 0 -25 1t-22 1q-101 0 -136.5 -38.5t-35.5 -162.5v-240q0 -148 -45 -210t-162 -89q117 -27 162 -88t45 -209v-241q0 -123 35 -161t137 -38q6 0 22 1t25 1v-209q-14 0 -39 -1t-37 -1q-100 0 -167 12t-114 37q-57 34 -80.5 91.5t-23.5 199.5v252
q0 137 -51 194.5t-172 57.5q-6 0 -20 -1t-21 -1v209q7 0 21 -1t20 -1q120 0 171.5 58t51.5 196v250q0 143 23.5 201t80.5 92q47 25 114 37t167 12q12 0 37 -1t39 -1z" />
    <glyph glyph-name="bar" unicode="|" 
d="M410 1565h206v-2048h-206v2048z" />
    <glyph glyph-name="braceright" unicode="}" 
d="M143 1477h68q110 0 177 -12t112 -38q57 -32 80.5 -91.5t23.5 -198.5v-252q0 -137 51 -194.5t172 -57.5q6 0 20 1t21 1v-209h-37q-125 0 -176 -56t-51 -194v-252q0 -143 -23.5 -201t-80.5 -90q-47 -25 -114 -37t-167 -12q-12 0 -37 1t-39 1v209q9 0 25 -1t22 -1
q101 0 136.5 38.5t35.5 160.5v239q0 150 45 211.5t162 87.5q-117 27 -162 89t-45 210v242q0 122 -35.5 160.5t-136.5 38.5q-6 0 -22 -1t-25 -1v209z" />
    <glyph glyph-name="asciitilde" unicode="~" horiz-adv-x="1706" 
d="M1530 803v-221q-104 -71 -196.5 -104.5t-182.5 -33.5q-46 0 -92 8t-92 23q-24 8 -71 25q-219 75 -333 75q-85 0 -177.5 -37.5t-207.5 -119.5v221q107 72 204 107.5t183 35.5q117 0 291 -58l4 -1q18 -6 55 -19q155 -55 240 -55t175 37t200 117z" />
    <glyph glyph-name="Adieresis" unicode="&#xc4;" horiz-adv-x="1081" 
d="M416 492h221l-72 493q-8 60 -15.5 151t-12.5 203h-19q-10 -133 -19 -233t-14 -127zM16 0l355 1565h327l346 -1565h-319l-43 254h-311l-52 -254h-303zM602 1966h220v-237h-220v237zM260 1966h220v-237h-220v237z" />
    <glyph glyph-name="Aring" unicode="&#xc5;" horiz-adv-x="1081" 
d="M16 0l355 1470h327l346 -1470h-319l-43 238h-311l-52 -238h-303zM416 461h221l-72 467q-8 51 -15.5 135.5t-12.5 196.5h-19q-10 -125 -19 -219t-14 -119zM531 1843q-37 0 -63 -26.5t-26 -63.5q0 -36 26 -61t62 -25q37 0 62.5 25t25.5 61q0 38 -24.5 63t-62.5 27z
M530 1972q90 0 154 -64t64 -153q0 -90 -63.5 -153.5t-154.5 -63.5q-90 0 -153.5 63.5t-63.5 153.5q0 89 64 153t153 64z" />
    <glyph glyph-name="Ccedilla" unicode="&#xc7;" horiz-adv-x="1053" 
d="M1006 420q-34 -220 -151.5 -335.5t-307.5 -115.5q-234 0 -347.5 198t-113.5 607q0 424 119 623.5t370 199.5q177 0 283.5 -99t145.5 -302l-281 -94q-11 126 -48 183.5t-106 57.5q-93 0 -131.5 -122t-38.5 -447q0 -314 37 -431.5t127 -117.5q67 0 107.5 72.5t56.5 218.5z
M481 0h115v-83q98 -9 149.5 -58.5t51.5 -134.5q0 -100 -66.5 -154.5t-187.5 -54.5q-41 0 -98.5 7t-135.5 21v138q98 -16 143 -21.5t70 -5.5q44 0 65 17.5t21 54.5q0 31 -25 46t-79 15h-23v213z" />
    <glyph glyph-name="Eacute" unicode="&#xc9;" horiz-adv-x="901" 
d="M131 0v1565h657v-246h-354v-375h354v-242h-354v-450h354v-252h-657zM484 1989h256l-305 -283h-125z" />
    <glyph glyph-name="Ntilde" unicode="&#xd1;" horiz-adv-x="1114" 
d="M131 0v1565h303l207 -746q16 -55 49 -195.5t78 -349.5h20q-37 285 -58 504t-21 326v461h274v-1565h-297l-201 697q-4 15 -14 50q-85 291 -121 508h-18q36 -282 55 -504t19 -370v-381h-275zM750 1975h88q-19 -118 -67.5 -176t-127.5 -58q-10 0 -21 1.5t-22 4.5l-121 37
q-7 3 -15 4.5t-18 1.5q-32 0 -53 -18.5t-29 -55.5h-88q20 117 64.5 175.5t114.5 58.5q11 0 26 -2.5t35 -7.5l111 -33q12 -3 23.5 -4.5t23.5 -1.5q29 0 48.5 18.5t27.5 55.5z" />
    <glyph glyph-name="Odieresis" unicode="&#xd6;" horiz-adv-x="1096" 
d="M399 791q0 -321 33.5 -442.5t114.5 -121.5q82 0 115.5 121.5t33.5 442.5q0 316 -34 440.5t-115 124.5q-82 0 -115 -120.5t-33 -444.5zM1010 752q0 -394 -115.5 -588.5t-347.5 -194.5q-236 0 -348.5 198.5t-112.5 614.5q0 417 112.5 615t348.5 198q241 0 352 -201
t111 -642zM610 1966h220v-237h-220v237zM268 1966h220v-237h-220v237z" />
    <glyph glyph-name="Udieresis" unicode="&#xdc;" horiz-adv-x="1104" 
d="M121 514v1051h303v-1053q0 -167 28.5 -228t98.5 -61q71 0 100 61.5t29 227.5v1053h303v-1051q0 -279 -105.5 -412t-326.5 -133t-325.5 133t-104.5 412zM614 1966h220v-237h-220v237zM272 1966h220v-237h-220v237z" />
    <glyph glyph-name="aacute" unicode="&#xe1;" horiz-adv-x="1008" 
d="M600 0v221q-37 -116 -95 -174.5t-136 -58.5q-136 0 -207.5 152.5t-71.5 441.5q0 301 66.5 448.5t201.5 147.5q89 0 147.5 -58t94.5 -182v217h281v-1155h-281zM614 588q0 163 -30.5 248.5t-89.5 85.5q-62 0 -89.5 -81t-27.5 -266q0 -171 28 -253t87 -82q62 0 92 85.5
t30 262.5zM551 1573h256l-305 -283h-125z" />
    <glyph glyph-name="agrave" unicode="&#xe0;" horiz-adv-x="1008" 
d="M600 0v221q-37 -116 -95 -174.5t-136 -58.5q-136 0 -207.5 152.5t-71.5 441.5q0 301 66.5 448.5t201.5 147.5q89 0 147.5 -58t94.5 -182v217h281v-1155h-281zM614 588q0 163 -30.5 248.5t-89.5 85.5q-62 0 -89.5 -81t-27.5 -266q0 -171 28 -253t87 -82q62 0 92 85.5
t30 262.5zM229 1573h256l174 -283h-125z" />
    <glyph glyph-name="acircumflex" unicode="&#xe2;" horiz-adv-x="1008" 
d="M600 0v221q-37 -116 -95 -174.5t-136 -58.5q-136 0 -207.5 152.5t-71.5 441.5q0 301 66.5 448.5t201.5 147.5q89 0 147.5 -58t94.5 -182v217h281v-1155h-281zM614 588q0 163 -30.5 248.5t-89.5 85.5q-62 0 -89.5 -81t-27.5 -266q0 -171 28 -253t87 -82q62 0 92 85.5
t30 262.5zM416 1573h204l174 -283h-124l-152 148l-152 -148h-124z" />
    <glyph glyph-name="adieresis" unicode="&#xe4;" horiz-adv-x="1008" 
d="M600 0v221q-37 -116 -95 -174.5t-136 -58.5q-136 0 -207.5 152.5t-71.5 441.5q0 301 66.5 448.5t201.5 147.5q89 0 147.5 -58t94.5 -182v217h281v-1155h-281zM614 588q0 163 -30.5 248.5t-89.5 85.5q-62 0 -89.5 -81t-27.5 -266q0 -171 28 -253t87 -82q62 0 92 85.5
t30 262.5zM579 1550h220v-237h-220v237zM237 1550h220v-237h-220v237z" />
    <glyph glyph-name="atilde" unicode="&#xe3;" horiz-adv-x="1008" 
d="M600 0v221q-37 -116 -95 -174.5t-136 -58.5q-136 0 -207.5 152.5t-71.5 441.5q0 301 66.5 448.5t201.5 147.5q89 0 147.5 -58t94.5 -182v217h281v-1155h-281zM614 588q0 163 -30.5 248.5t-89.5 85.5q-62 0 -89.5 -81t-27.5 -266q0 -171 28 -253t87 -82q62 0 92 85.5
t30 262.5zM711 1559h88q-19 -118 -67.5 -176t-127.5 -58q-10 0 -21 1.5t-22 4.5l-121 37q-7 3 -15 4.5t-18 1.5q-32 0 -53 -18.5t-29 -55.5h-88q20 117 64.5 175.5t114.5 58.5q11 0 26 -2.5t35 -7.5l111 -33q12 -3 23.5 -4.5t23.5 -1.5q29 0 48.5 18.5t27.5 55.5z" />
    <glyph glyph-name="aring" unicode="&#xe5;" horiz-adv-x="1008" 
d="M515 1550q-37 0 -63 -26.5t-26 -63.5q0 -35 25.5 -60.5t62.5 -25.5t62.5 25.5t25.5 60.5q0 38 -25.5 63.5t-61.5 26.5zM512 1679q89 0 154 -64t65 -153q0 -90 -64 -153.5t-155 -63.5q-90 0 -152.5 63t-62.5 154q0 90 63 153.5t152 63.5zM600 0v221q-37 -116 -95 -174.5
t-136 -58.5q-136 0 -207.5 152.5t-71.5 441.5q0 301 66.5 448.5t201.5 147.5q89 0 147.5 -58t94.5 -182v217h281v-1155h-281zM614 588q0 163 -30.5 248.5t-89.5 85.5q-62 0 -89.5 -81t-27.5 -266q0 -171 28 -253t87 -82q62 0 92 85.5t30 262.5z" />
    <glyph glyph-name="ccedilla" unicode="&#xe7;" horiz-adv-x="840" 
d="M815 303q-32 -159 -124.5 -243.5t-235.5 -84.5q-197 0 -290 146t-93 454q0 324 94.5 465.5t308.5 141.5q147 0 234 -82t104 -236l-250 -55q0 70 -25 108.5t-71 38.5q-58 0 -80 -78t-22 -350q0 -176 23 -244.5t79 -68.5q39 0 64 39t40 125zM378 0h115v-83
q98 -9 149.5 -58.5t51.5 -134.5q0 -100 -66.5 -154.5t-187.5 -54.5q-41 0 -98.5 7t-135.5 21v138q98 -16 143 -21.5t70 -5.5q44 0 65 17.5t21 54.5q0 31 -25 46t-79 15h-23v213z" />
    <glyph glyph-name="eacute" unicode="&#xe9;" horiz-adv-x="952" 
d="M346 707h274q-1 135 -35 197.5t-106 62.5q-65 0 -98 -65t-35 -195zM864 317q-37 -170 -133 -257t-250 -87q-211 0 -310 144t-99 450q0 315 99.5 463t311.5 148q201 0 303.5 -135t102.5 -400v-119h-543v-16q0 -163 32 -236t103 -73q51 0 84 45.5t43 132.5zM510 1573h256
l-305 -283h-125z" />
    <glyph glyph-name="egrave" unicode="&#xe8;" horiz-adv-x="952" 
d="M346 707h274q-1 135 -35 197.5t-106 62.5q-65 0 -98 -65t-35 -195zM864 317q-37 -170 -133 -257t-250 -87q-211 0 -310 144t-99 450q0 315 99.5 463t311.5 148q201 0 303.5 -135t102.5 -400v-119h-543v-16q0 -163 32 -236t103 -73q51 0 84 45.5t43 132.5zM188 1573h256
l174 -283h-125z" />
    <glyph glyph-name="ecircumflex" unicode="&#xea;" horiz-adv-x="952" 
d="M346 707h274q-1 135 -35 197.5t-106 62.5q-65 0 -98 -65t-35 -195zM864 317q-37 -170 -133 -257t-250 -87q-211 0 -310 144t-99 450q0 315 99.5 463t311.5 148q201 0 303.5 -135t102.5 -400v-119h-543v-16q0 -163 32 -236t103 -73q51 0 84 45.5t43 132.5zM375 1573h204
l174 -283h-124l-152 148l-152 -148h-124z" />
    <glyph glyph-name="edieresis" unicode="&#xeb;" horiz-adv-x="952" 
d="M346 707h274q-1 135 -35 197.5t-106 62.5q-65 0 -98 -65t-35 -195zM864 317q-37 -170 -133 -257t-250 -87q-211 0 -310 144t-99 450q0 315 99.5 463t311.5 148q201 0 303.5 -135t102.5 -400v-119h-543v-16q0 -163 32 -236t103 -73q51 0 84 45.5t43 132.5zM538 1550h220
v-237h-220v237zM196 1550h220v-237h-220v237z" />
    <glyph glyph-name="iacute" unicode="&#xed;" horiz-adv-x="541" 
d="M131 0v1155h279v-1155h-279zM303 1573h256l-305 -283h-125z" />
    <glyph glyph-name="igrave" unicode="&#xec;" horiz-adv-x="541" 
d="M131 0v1155h279v-1155h-279zM-19 1573h256l174 -283h-125z" />
    <glyph glyph-name="icircumflex" unicode="&#xee;" horiz-adv-x="541" 
d="M131 0v1155h279v-1155h-279zM168 1573h204l174 -283h-124l-152 148l-152 -148h-124z" />
    <glyph glyph-name="idieresis" unicode="&#xef;" horiz-adv-x="541" 
d="M131 0v1155h279v-1155h-279zM331 1550h220v-237h-220v237zM-11 1550h220v-237h-220v237z" />
    <glyph glyph-name="ntilde" unicode="&#xf1;" horiz-adv-x="1004" 
d="M127 2v1153h266v-184q49 104 117.5 155.5t159.5 51.5q122 0 172.5 -75t50.5 -274v-827h-281v723q0 126 -21.5 170.5t-76.5 44.5q-53 0 -79.5 -52.5t-26.5 -156.5v-729h-281zM725 1559h88q-19 -118 -67.5 -176t-127.5 -58q-10 0 -21 1.5t-22 4.5l-121 37q-7 3 -15 4.5
t-18 1.5q-32 0 -53 -18.5t-29 -55.5h-88q20 117 64.5 175.5t114.5 58.5q11 0 26 -2.5t35 -7.5l111 -33q12 -3 23.5 -4.5t23.5 -1.5q29 0 48.5 18.5t27.5 55.5z" />
    <glyph glyph-name="oacute" unicode="&#xf3;" horiz-adv-x="973" 
d="M485 211q68 0 96.5 83.5t28.5 287.5q0 201 -29 286.5t-96 85.5q-66 0 -95.5 -87t-29.5 -285q0 -199 29.5 -285t95.5 -86zM72 578q0 304 102 453t311 149q211 0 313.5 -149t102.5 -453q0 -305 -102.5 -453t-313.5 -148q-209 0 -311 148.5t-102 452.5zM520 1573h256
l-305 -283h-125z" />
    <glyph glyph-name="ograve" unicode="&#xf2;" horiz-adv-x="973" 
d="M485 211q68 0 96.5 83.5t28.5 287.5q0 201 -29 286.5t-96 85.5q-66 0 -95.5 -87t-29.5 -285q0 -199 29.5 -285t95.5 -86zM72 578q0 304 102 453t311 149q211 0 313.5 -149t102.5 -453q0 -305 -102.5 -453t-313.5 -148q-209 0 -311 148.5t-102 452.5zM198 1573h256
l174 -283h-125z" />
    <glyph glyph-name="ocircumflex" unicode="&#xf4;" horiz-adv-x="973" 
d="M485 211q68 0 96.5 83.5t28.5 287.5q0 201 -29 286.5t-96 85.5q-66 0 -95.5 -87t-29.5 -285q0 -199 29.5 -285t95.5 -86zM72 578q0 304 102 453t311 149q211 0 313.5 -149t102.5 -453q0 -305 -102.5 -453t-313.5 -148q-209 0 -311 148.5t-102 452.5zM385 1573h204
l174 -283h-124l-152 148l-152 -148h-124z" />
    <glyph glyph-name="odieresis" unicode="&#xf6;" horiz-adv-x="973" 
d="M485 211q68 0 96.5 83.5t28.5 287.5q0 201 -29 286.5t-96 85.5q-66 0 -95.5 -87t-29.5 -285q0 -199 29.5 -285t95.5 -86zM72 578q0 304 102 453t311 149q211 0 313.5 -149t102.5 -453q0 -305 -102.5 -453t-313.5 -148q-209 0 -311 148.5t-102 452.5zM548 1550h220v-237
h-220v237zM206 1550h220v-237h-220v237z" />
    <glyph glyph-name="otilde" unicode="&#xf5;" horiz-adv-x="973" 
d="M485 211q68 0 96.5 83.5t28.5 287.5q0 201 -29 286.5t-96 85.5q-66 0 -95.5 -87t-29.5 -285q0 -199 29.5 -285t95.5 -86zM72 578q0 304 102 453t311 149q211 0 313.5 -149t102.5 -453q0 -305 -102.5 -453t-313.5 -148q-209 0 -311 148.5t-102 452.5zM680 1559h88
q-19 -118 -67.5 -176t-127.5 -58q-10 0 -21 1.5t-22 4.5l-121 37q-7 3 -15 4.5t-18 1.5q-32 0 -53 -18.5t-29 -55.5h-88q20 117 64.5 175.5t114.5 58.5q11 0 26 -2.5t35 -7.5l111 -33q12 -3 23.5 -4.5t23.5 -1.5q29 0 48.5 18.5t27.5 55.5z" />
    <glyph glyph-name="uacute" unicode="&#xfa;" horiz-adv-x="995" 
d="M117 483v672h280v-678q0 -153 23 -209.5t78 -56.5q54 0 76 56t22 210v678h281v-672q0 -259 -93 -383.5t-286 -124.5q-194 0 -287.5 125t-93.5 383zM531 1573h256l-305 -283h-125z" />
    <glyph glyph-name="ugrave" unicode="&#xf9;" horiz-adv-x="995" 
d="M117 483v672h280v-678q0 -153 23 -209.5t78 -56.5q54 0 76 56t22 210v678h281v-672q0 -259 -93 -383.5t-286 -124.5q-194 0 -287.5 125t-93.5 383zM209 1573h256l174 -283h-125z" />
    <glyph glyph-name="ucircumflex" unicode="&#xfb;" horiz-adv-x="995" 
d="M117 483v672h280v-678q0 -153 23 -209.5t78 -56.5q54 0 76 56t22 210v678h281v-672q0 -259 -93 -383.5t-286 -124.5q-194 0 -287.5 125t-93.5 383zM396 1573h204l174 -283h-124l-152 148l-152 -148h-124z" />
    <glyph glyph-name="udieresis" unicode="&#xfc;" horiz-adv-x="995" 
d="M117 483v672h280v-678q0 -153 23 -209.5t78 -56.5q54 0 76 56t22 210v678h281v-672q0 -259 -93 -383.5t-286 -124.5q-194 0 -287.5 125t-93.5 383zM559 1550h220v-237h-220v237zM217 1550h220v-237h-220v237z" />
    <glyph glyph-name="dagger" unicode="&#x2020;" 
d="M373 -123v1049h-271v227h271v412h274v-412h275v-227h-275v-1049h-274z" />
    <glyph glyph-name="degree" unicode="&#xb0;" horiz-adv-x="674" 
d="M338 1335q-73 0 -124.5 -51t-51.5 -123q0 -74 51 -125t125 -51q72 0 123 52t51 124t-51 123t-123 51zM338 1464q126 0 214.5 -89.5t88.5 -215.5q0 -125 -89 -214t-216 -89q-126 0 -213.5 88t-87.5 215t88.5 216t214.5 89z" />
    <glyph glyph-name="cent" unicode="&#xa2;" 
d="M883 485q-30 -134 -97 -208.5t-180 -98.5v-203h-133v203q-151 23 -224 163t-73 404q0 271 71 406.5t226 161.5v205h133v-201q124 -15 191 -87.5t84 -209.5l-236 -53q0 66 -24.5 102.5t-69.5 36.5q-55 0 -75.5 -76t-20.5 -332q0 -163 22 -229t74 -66q37 0 60.5 36.5
t39.5 117.5z" />
    <glyph glyph-name="sterling" unicode="&#xa3;" 
d="M246 -12l-80 174q98 92 141 176t43 182q0 30 -4.5 57.5t-13.5 55.5h-164v180h106q-40 118 -58.5 202.5t-18.5 147.5q0 165 96.5 260t263.5 95q171 0 264.5 -105t93.5 -297v-16h-256v10q0 89 -24.5 135.5t-71.5 46.5q-42 0 -66 -37.5t-24 -103.5q0 -44 16 -108.5
t72 -229.5h219v-180h-169q5 -33 7.5 -58.5t2.5 -48.5q0 -85 -28.5 -151.5t-86.5 -116.5q32 13 54.5 19t41.5 6q51 0 125 -33t104 -33q25 0 50.5 10.5t58.5 34.5l68 -196q-56 -45 -112 -68t-110 -23q-62 0 -172 50.5t-165 50.5t-104 -21.5t-99 -66.5z" />
    <glyph glyph-name="section" unicode="&#xa7;" 
d="M158 82l159 117q40 -58 86 -90.5t86 -32.5q45 0 74 28t29 70q0 35 -23.5 74t-97.5 114l-203 203q-98 101 -136 170.5t-38 141.5q0 93 55 160t152 91q-45 75 -61.5 121.5t-16.5 91.5q0 116 83.5 185t223.5 69q98 0 174 -41.5t142 -130.5l-158 -116q-51 56 -89 79t-77 23
q-35 0 -57.5 -21.5t-22.5 -56.5q0 -59 120 -179l7 -7l181 -178q102 -103 140 -171.5t38 -142.5q0 -103 -52 -165.5t-159 -90.5q46 -57 68 -113t22 -116q0 -126 -82 -202.5t-217 -76.5q-110 0 -190.5 44.5t-159.5 148.5zM305 901q0 -35 31 -81t123 -140l10 -10
q115 -119 174 -119q32 0 54 23.5t22 58.5q0 28 -27 69t-108 129q-75 80 -120.5 113t-80.5 33q-31 0 -54.5 -23t-23.5 -53z" />
    <glyph glyph-name="bullet" unicode="&#x2022;" horiz-adv-x="1208" 
d="M307 762q0 123 87 209t210 86q122 0 208.5 -86.5t86.5 -208.5t-87.5 -209.5t-209.5 -87.5q-123 0 -209 87t-86 210z" />
    <glyph glyph-name="paragraph" unicode="&#xb6;" 
d="M983 1479v-111h-113v-1368h-151v1368h-158v-1368h-153v784q-167 6 -267 101t-100 245q0 158 107 253.5t284 95.5h551z" />
    <glyph glyph-name="germandbls" unicode="&#xdf;" horiz-adv-x="1014" 
d="M129 0v1108q0 247 93 360t294 113q163 0 266 -105.5t103 -271.5q0 -98 -40 -167t-112 -97q98 -38 146.5 -141t48.5 -273q0 -260 -94 -399t-271 -139h-14l-47 268h10q66 0 95.5 60t29.5 196q0 151 -29.5 216t-95.5 65q-4 0 -11 -1t-12 -1v219q68 0 98.5 41.5t30.5 132.5
q0 78 -29 122t-79 44q-52 0 -76 -44.5t-24 -142.5v-1163h-281z" />
    <glyph glyph-name="registered" unicode="&#xae;" horiz-adv-x="1706" 
d="M745 1034v-239h99q88 0 129 28t41 88q0 63 -44 93t-136 30h-89zM545 1161h323q176 0 264.5 -59.5t88.5 -177.5q0 -82 -48 -140t-133 -79l185 -369h-224l-157 338h-99v-338h-200v825zM854 1356q-127 0 -236 -44.5t-196 -131.5q-91 -91 -140 -206.5t-49 -238.5
q0 -124 46 -235.5t133 -198.5q89 -91 203 -139.5t237 -48.5q120 0 233.5 47t206.5 135q87 84 135 196t48 232q0 133 -44.5 245t-132.5 201q-90 93 -202.5 140t-241.5 47zM852 1479q154 0 290.5 -57.5t243.5 -166.5q103 -104 157 -238t54 -284q0 -152 -56 -287.5t-163 -238.5
q-107 -105 -243.5 -161t-282.5 -56q-149 0 -285 58t-243 167q-104 105 -158.5 238.5t-54.5 279.5q0 102 27 198.5t81 188.5q101 170 267 264.5t366 94.5z" />
    <glyph glyph-name="copyright" unicode="&#xa9;" horiz-adv-x="1706" 
d="M1212 897h-188q-8 70 -53 108.5t-119 38.5q-91 0 -143 -81.5t-52 -227.5q0 -147 52 -224t151 -77q73 0 117 42t53 119l193 1q-8 -139 -109 -223t-260 -84q-186 0 -293.5 118t-107.5 322q0 206 109.5 328.5t293.5 122.5q152 0 250.5 -78t105.5 -205zM854 1356
q-128 0 -239.5 -46t-198.5 -134q-89 -90 -136 -203.5t-47 -237.5q0 -125 47 -237t136 -201q88 -88 201 -135t237 -47t237.5 47t204.5 137q88 86 133.5 197t45.5 239q0 126 -46.5 238.5t-134.5 200.5q-89 89 -201 135.5t-239 46.5zM852 1479q152 0 287.5 -56t242.5 -163
q105 -105 160 -240.5t55 -286.5q0 -152 -54.5 -284t-160.5 -236q-111 -108 -248 -165.5t-282 -57.5q-147 0 -280.5 56.5t-241.5 164.5q-107 106 -163 240.5t-56 281.5q0 149 56 284.5t163 244.5q105 106 238 161.5t284 55.5z" />
    <glyph glyph-name="trademark" unicode="&#x2122;" horiz-adv-x="1706" 
d="M803 1462h196l127 -332l123 332h197v-547h-135v410l-154 -410h-61l-158 410v-410h-135v547zM207 1462h485v-112h-168v-435h-149v435h-168v112z" />
    <glyph glyph-name="acute" unicode="&#xb4;" 
d="M545 1573h256l-305 -283h-125z" />
    <glyph glyph-name="dieresis" unicode="&#xa8;" 
d="M573 1550h220v-237h-220v237zM231 1550h220v-237h-220v237z" />
    <glyph glyph-name="notequal" unicode="&#x2260;" horiz-adv-x="1706" 
d="M1198 1233l148 -119l-154 -192h260v-191h-389l-191 -239h580v-193h-707l-245 -309l-148 119l154 190h-252v193h377l190 239h-567v191h696z" />
    <glyph glyph-name="AE" unicode="&#xc6;" horiz-adv-x="1407" 
d="M403 485h254v920h-20zM283 0h-295l442 1565h866v-246h-354v-375h354v-242h-354v-450h354v-252h-639v250h-309z" />
    <glyph glyph-name="Oslash" unicode="&#xd8;" horiz-adv-x="1096" 
d="M84 -29l104 211q-50 87 -76 239t-26 361q0 417 112.5 615t348.5 198q89 0 160.5 -26.5t117.5 -77.5l82 162l105 -56l-105 -213q52 -99 77.5 -247t25.5 -355q0 -416 -113 -614.5t-350 -198.5q-88 0 -156 26.5t-129 84.5l-78 -164zM420 332q17 -71 48 -105t79 -34
q89 0 125.5 132.5t36.5 485.5q0 86 -0.5 134.5t-2.5 92.5zM389 529l291 722q-24 70 -55 101.5t-76 31.5q-90 0 -127 -134.5t-37 -483.5q0 -45 1 -97t3 -140z" />
    <glyph glyph-name="infinity" unicode="&#x221e;" horiz-adv-x="1706" 
d="M942 561q45 -75 106.5 -113t139.5 -38q94 0 152.5 55.5t58.5 144.5q0 87 -54 143t-135 56q-75 0 -138 -57.5t-130 -190.5zM766 659q-44 75 -105.5 112.5t-140.5 37.5q-94 0 -152.5 -56t-58.5 -145q0 -85 54 -141.5t135 -56.5q75 0 138 58t130 191zM858 457
q-68 -132 -146.5 -195t-174.5 -63q-140 0 -236 117.5t-96 293.5q0 184 85.5 297t223.5 113q92 0 170 -60t164 -198q68 132 148 196t175 64q139 0 235.5 -118.5t96.5 -293.5q0 -183 -86 -296t-223 -113q-93 0 -170.5 58.5t-165.5 197.5z" />
    <glyph glyph-name="plusminus" unicode="&#xb1;" horiz-adv-x="1706" 
d="M254 197h1198v-199h-1198v199zM752 1223h202v-326h498v-199h-498v-325h-202v325h-498v199h498v326z" />
    <glyph glyph-name="lessequal" unicode="&#x2264;" horiz-adv-x="1706" 
d="M258 195h1192v-197h-1192v197zM1448 1241v-209l-834 -264l834 -262v-209l-1190 385v174z" />
    <glyph glyph-name="greaterequal" unicode="&#x2265;" horiz-adv-x="1706" 
d="M258 195h1192v-197h-1192v197zM260 1241l1188 -385v-174l-1188 -385v209l832 262l-832 264v209z" />
    <glyph glyph-name="yen" unicode="&#xa5;" 
d="M367 0v600h-330v119h287l-62 158h-225v118h180l-190 498h315l111 -401q23 -87 36.5 -179.5t18.5 -195.5h20q11 128 24.5 225t29.5 158l110 393h305l-190 -498h166v-118h-211l-64 -158h275v-119h-318v-600h-288z" />
    <glyph glyph-name="mu" unicode="&#xb5;" horiz-adv-x="1249" 
d="M205 1092h289l-76 -435q-15 -80 -23 -151.5t-8 -116.5q0 -93 42 -138.5t128 -45.5q100 0 155.5 82t92.5 291l90 514h289l-193 -1092h-268l18 117q-42 -78 -93.5 -114t-121.5 -36q-67 0 -119 29.5t-94 91.5l-90 -526h-286z" />
    <glyph glyph-name="partialdiff" unicode="&#x2202;" horiz-adv-x="1094" 
d="M762 662q19 99 29 188.5t10 155.5q0 100 -26 157.5t-70 57.5t-146 -73t-160 -73q-42 0 -71 30t-29 73q0 64 86.5 118t210.5 54q192 0 309 -161.5t117 -432.5q0 -339 -156.5 -560t-396.5 -221q-171 0 -282 114.5t-111 291.5q0 198 116 329.5t287 131.5q102 0 170 -43.5
t113 -136.5zM700 518q0 116 -38.5 178t-110.5 62q-101 0 -167.5 -134t-66.5 -341q0 -117 38.5 -177.5t111.5 -60.5q101 0 167 133.5t66 339.5z" />
    <glyph glyph-name="summation" unicode="&#x2211;" horiz-adv-x="1470" 
d="M66 1473h1308v-265h-878l620 -645l-622 -690h933v-266h-1386v172l698 772l-673 690v232z" />
    <glyph glyph-name="product" unicode="&#x220f;" horiz-adv-x="1612" 
d="M150 1473h1308v-1866h-344v1577h-620v-1577h-344v1866z" />
    <glyph glyph-name="pi" unicode="&#x3c0;" horiz-adv-x="1319" 
d="M1354 1092l-39 -224h-176l-154 -868h-287l152 868h-238l-151 -868h-287l152 868h-25q-55 0 -84 -31t-39 -99l-213 -1q29 199 123 277t311 78h955z" />
    <glyph glyph-name="integral" unicode="&#x222b;" horiz-adv-x="1186" 
d="M342 -252q102 0 121 639q3 136 6 211q16 508 123 732t328 224q98 0 157.5 -49t59.5 -129q0 -60 -38 -96.5t-100 -36.5q-46 0 -77 24t-41 68q-5 20 -7 54q-3 46 -30 47q-99 0 -119 -633q-4 -116 -6 -178q-11 -296 -31 -444.5t-59 -250.5q-56 -148 -148.5 -225.5
t-214.5 -77.5q-96 0 -156.5 49t-60.5 127q0 62 39 99t105 37q50 0 85 -31.5t35 -71.5q0 -58 6 -73t23 -15z" />
    <glyph glyph-name="ordfeminine" unicode="&#xaa;" horiz-adv-x="756" 
d="M451 756v155q-28 -81 -71.5 -122t-103.5 -41q-101 0 -154.5 106.5t-53.5 308.5q0 210 49.5 314t150.5 104q67 0 111.5 -40.5t71.5 -127.5v152h211v-809h-211zM461 1167q0 114 -23 174t-67 60q-47 0 -67.5 -56t-20.5 -186q0 -120 21 -177.5t65 -57.5q47 0 69.5 59.5
t22.5 183.5z" />
    <glyph glyph-name="ordmasculine" unicode="&#xba;" horiz-adv-x="729" 
d="M365 903q50 0 72 59.5t22 200.5q0 139 -22.5 199.5t-71.5 60.5q-50 0 -72.5 -60.5t-22.5 -199.5t22 -199.5t73 -60.5zM53 1159q0 214 77 318t235 104q157 0 234 -104t77 -318q0 -212 -77 -316t-234 -104q-158 0 -235 104t-77 316z" />
    <glyph glyph-name="Omega" unicode="&#x3a9;" horiz-adv-x="1575" 
d="M1227 256h291v-256h-609v291q126 86 192 217.5t66 296.5q0 203 -101.5 319.5t-279.5 116.5q-177 0 -278.5 -116.5t-101.5 -319.5q0 -164 66 -296.5t192 -217.5v-291h-609v256h291q-126 121 -187 260t-61 303q0 313 188 501.5t500 188.5q313 0 501 -188.5t188 -501.5
q0 -164 -61 -303t-187 -260z" />
    <glyph glyph-name="ae" unicode="&#xe6;" horiz-adv-x="1413" 
d="M846 701l254 -1q0 135 -30 201t-91 66q-63 0 -97.5 -69t-35.5 -197zM584 0v236q-43 -129 -98.5 -188.5t-131.5 -59.5q-129 0 -196.5 151.5t-67.5 442.5q0 306 63.5 451t196.5 145q82 0 140 -64.5t94 -193.5v235h229v-229q38 132 95.5 192t146.5 60q135 0 216 -144.5
t81 -390.5v-104h-506v-35q0 -160 30 -232.5t95 -72.5q48 0 78 45t41 133l237 -60q-33 -156 -109.5 -243.5t-179.5 -87.5q-89 0 -148 62t-77 175v-223h-229zM588 588q0 163 -29.5 248.5t-85.5 85.5q-58 0 -84.5 -81t-26.5 -266q0 -171 27 -253t82 -82q59 0 88 85.5t29 262.5z
" />
    <glyph glyph-name="oslash" unicode="&#xf8;" horiz-adv-x="973" 
d="M371 324q12 -64 41.5 -97.5t72.5 -33.5q73 0 104.5 91t31.5 318v103zM352 453l252 381q-9 63 -41.5 101t-77.5 38q-70 0 -103.5 -92.5t-33.5 -288.5q0 -41 4 -129v-10zM45 -8l107 166q-42 77 -61 175t-19 245q0 303 102.5 452.5t310.5 149.5q84 0 153 -25.5t120 -75.5
l94 142l74 -60l-105 -160q41 -79 60.5 -181.5t19.5 -241.5q0 -305 -102.5 -453t-313.5 -148q-80 0 -144.5 23.5t-123.5 73.5l-96 -140z" />
    <glyph glyph-name="questiondown" unicode="&#xbf;" horiz-adv-x="887" 
d="M670 1438q0 -64 -46.5 -111t-111.5 -47q-67 0 -111.5 45.5t-44.5 112.5q0 65 46.5 111t109.5 46q62 0 110 -47.5t48 -109.5zM643 1114q-3 -93 -34.5 -182t-98.5 -191q-11 -17 -34 -50q-122 -175 -122 -324q0 -71 27 -109.5t76 -38.5q60 0 88.5 61.5t30.5 196.5h255v-26
q0 -233 -101.5 -354.5t-295.5 -121.5q-170 0 -269 103.5t-99 281.5q0 104 35.5 200t127.5 228q83 120 112 188t36 138h266z" />
    <glyph glyph-name="exclamdown" unicode="&#xa1;" horiz-adv-x="598" 
d="M449 1432q0 -64 -46.5 -111t-111.5 -47q-67 0 -111.5 45.5t-44.5 112.5q0 65 46 110t110 45q62 0 110 -46.5t48 -108.5zM416 1112l30 -1112h-307l27 1112h250z" />
    <glyph glyph-name="logicalnot" unicode="&#xac;" horiz-adv-x="1706" 
d="M254 864h1198v-502h-199v306h-999v196z" />
    <glyph glyph-name="radical" unicode="&#x221a;" horiz-adv-x="1346" 
d="M1141 1694h207v-129h-103l-592 -1606h-100l-311 858l-140 -51l-30 113l331 116l236 -661z" />
    <glyph glyph-name="florin" unicode="&#x192;" 
d="M-64 -226q18 -4 31.5 -6.5t22.5 -3.5q73 0 116 55.5t74 200.5l162 766h-135v181h176l29 137q49 225 136.5 320.5t239.5 95.5q36 0 77.5 -5t97.5 -16l-45 -221q-18 4 -32 6t-24 2q-75 0 -117 -54.5t-73 -203.5l-15 -61h156v-181h-195l-184 -843q-50 -227 -135.5 -320.5
t-239.5 -93.5q-37 0 -78.5 5.5t-93.5 16.5z" />
    <glyph glyph-name="approxequal" unicode="&#x2248;" horiz-adv-x="1706" 
d="M1530 596v-219q-106 -72 -198 -105.5t-181 -33.5q-95 0 -286.5 66.5t-301.5 66.5q-84 0 -174.5 -37t-210.5 -121v219q111 73 206.5 108t180.5 35q124 0 315.5 -65.5t274.5 -65.5q86 0 174 35.5t201 116.5zM1530 1008v-220q-106 -71 -196.5 -104t-180.5 -33
q-94 0 -286 65.5t-304 65.5q-82 0 -170 -35t-215 -122v219q107 71 204 107t183 36q125 0 316.5 -65.5t273.5 -65.5q84 0 171 35t204 117z" />
    <glyph glyph-name="Delta" unicode="&#x2206;" horiz-adv-x="1427" 
d="M713 1110l-326 -854h653zM563 1473h301l563 -1473h-1427z" />
    <glyph glyph-name="guillemotleft" unicode="&#xab;" horiz-adv-x="952" 
d="M874 276h-241l-111 322l111 324h241l-106 -324zM446 276h-239l-113 322l113 324h239l-106 -324z" />
    <glyph glyph-name="guillemotright" unicode="&#xbb;" horiz-adv-x="952" 
d="M506 276l106 322l-106 324h242l110 -324l-110 -322h-242zM80 276l106 322l-106 324h239l113 -324l-113 -322h-239z" />
    <glyph glyph-name="ellipsis" unicode="&#x2026;" horiz-adv-x="2048" 
d="M184 133q0 65 46 111.5t112 46.5q67 0 112.5 -45.5t45.5 -112.5q0 -65 -47 -111.5t-111 -46.5q-62 0 -110 48t-48 110zM866 133q0 65 46 111.5t112 46.5q67 0 112.5 -45.5t45.5 -112.5q0 -65 -47 -111.5t-111 -46.5q-62 0 -110 48t-48 110zM1550 133q0 65 46 111.5
t112 46.5q67 0 112.5 -45.5t45.5 -112.5q0 -65 -47 -111.5t-111 -46.5q-62 0 -110 48t-48 110z" />
    <glyph glyph-name="nonbreakingspace" unicode="&#xa0;" 
 />
    <glyph glyph-name="Agrave" unicode="&#xc0;" horiz-adv-x="1081" 
d="M416 492h221l-72 493q-8 60 -15.5 151t-12.5 203h-19q-10 -133 -19 -233t-14 -127zM16 0l355 1565h327l346 -1565h-319l-43 254h-311l-52 -254h-303zM252 1989h256l174 -283h-125z" />
    <glyph glyph-name="Atilde" unicode="&#xc3;" horiz-adv-x="1081" 
d="M416 492h221l-72 493q-8 60 -15.5 151t-12.5 203h-19q-10 -133 -19 -233t-14 -127zM16 0l355 1565h327l346 -1565h-319l-43 254h-311l-52 -254h-303zM734 1975h88q-19 -118 -67.5 -176t-127.5 -58q-10 0 -21 1.5t-22 4.5l-121 37q-7 3 -15 4.5t-18 1.5q-32 0 -53 -18.5
t-29 -55.5h-88q20 117 64.5 175.5t114.5 58.5q11 0 26 -2.5t35 -7.5l111 -33q12 -3 23.5 -4.5t23.5 -1.5q29 0 48.5 18.5t27.5 55.5z" />
    <glyph glyph-name="Otilde" unicode="&#xd5;" horiz-adv-x="1096" 
d="M399 791q0 -321 33.5 -442.5t114.5 -121.5q82 0 115.5 121.5t33.5 442.5q0 316 -34 440.5t-115 124.5q-82 0 -115 -120.5t-33 -444.5zM1010 752q0 -394 -115.5 -588.5t-347.5 -194.5q-236 0 -348.5 198.5t-112.5 614.5q0 417 112.5 615t348.5 198q241 0 352 -201
t111 -642zM742 1975h88q-19 -118 -67.5 -176t-127.5 -58q-10 0 -21 1.5t-22 4.5l-121 37q-7 3 -15 4.5t-18 1.5q-32 0 -53 -18.5t-29 -55.5h-88q20 117 64.5 175.5t114.5 58.5q11 0 26 -2.5t35 -7.5l111 -33q12 -3 23.5 -4.5t23.5 -1.5q29 0 48.5 18.5t27.5 55.5z" />
    <glyph glyph-name="OE" unicode="&#x152;" horiz-adv-x="1448" 
d="M399 791q0 -321 33.5 -442.5t114.5 -121.5q82 0 115.5 121.5t33.5 442.5q0 316 -34 440.5t-115 124.5q-82 0 -115 -120.5t-33 -444.5zM780 1436v129h555v-246h-354v-375h354v-242h-354v-450h354v-252h-555v139q-36 -85 -100.5 -127.5t-157.5 -42.5q-216 0 -326 205.5
t-110 607.5q0 409 110 611t332 202q94 0 154.5 -38t97.5 -121z" />
    <glyph glyph-name="oe" unicode="&#x153;" horiz-adv-x="1413" 
d="M844 696h256q0 140 -32 205.5t-99 65.5q-61 0 -93 -69t-32 -202zM1325 317q-35 -171 -124 -257.5t-230 -86.5q-85 0 -154 35.5t-108 100.5q-40 -63 -104 -97.5t-140 -34.5q-200 0 -296.5 148t-96.5 453t96.5 453.5t296.5 148.5q85 0 149 -32t105 -95q51 65 112 95t142 30
q180 0 278.5 -139t98.5 -396v-104h-506v-35q0 -160 30 -232.5t95 -72.5q48 0 78.5 45.5t40.5 132.5zM465 211q64 0 91.5 83t27.5 288q0 199 -28 285.5t-91 86.5t-91 -86.5t-28 -285.5q0 -196 28.5 -283.5t90.5 -87.5z" />
    <glyph glyph-name="endash" unicode="&#x2013;" 
d="M0 510v180h1024v-180h-1024z" />
    <glyph glyph-name="emdash" unicode="&#x2014;" horiz-adv-x="2048" 
d="M0 510v180h2048v-180h-2048z" />
    <glyph glyph-name="quotedblleft" unicode="&#x201c;" horiz-adv-x="930" 
d="M883 1102h-215l-164 463h254zM465 1102h-215l-164 463h254z" />
    <glyph glyph-name="quotedblright" unicode="&#x201d;" horiz-adv-x="930" 
d="M504 1102l125 463h254l-164 -463h-215zM86 1102l125 463h256l-166 -463h-215z" />
    <glyph glyph-name="quoteleft" unicode="&#x2018;" horiz-adv-x="512" 
d="M465 1102h-215l-164 463h254z" />
    <glyph glyph-name="quoteright" unicode="&#x2019;" horiz-adv-x="512" 
d="M86 1102l125 463h256l-166 -463h-215z" />
    <glyph glyph-name="divide" unicode="&#xf7;" horiz-adv-x="1706" 
d="M854 369q62 0 107 -45t45 -107q0 -61 -45 -105t-107 -44q-63 0 -107.5 43t-44.5 106t44.5 107.5t107.5 44.5zM254 711h1198v-199h-1198v199zM854 1155q62 0 107 -44.5t45 -106.5q0 -63 -44.5 -107.5t-107.5 -44.5t-107.5 44.5t-44.5 107.5t44.5 107t107.5 44z" />
    <glyph glyph-name="lozenge" unicode="&#x25ca;" horiz-adv-x="1012" 
d="M506 1409l-385 -817l385 -825l385 825zM506 1653l500 -1061l-500 -1069l-500 1069z" />
    <glyph glyph-name="ydieresis" unicode="&#xff;" horiz-adv-x="891" 
d="M205 -403l112 436l-297 1122h302l73 -422q9 -45 21 -155t24 -261h19q18 148 37 267.5t34 187.5l88 383h281l-418 -1558h-276zM507 1550h220v-237h-220v237zM165 1550h220v-237h-220v237z" />
    <glyph glyph-name="Ydieresis" unicode="&#x178;" horiz-adv-x="1006" 
d="M358 0v639l-354 926h330l117 -410q28 -97 43 -172t24 -154q11 99 27 183t37 155l118 398h322l-358 -936v-629h-306zM565 1966h220v-237h-220v237zM223 1966h220v-237h-220v237z" />
    <glyph glyph-name="fraction" unicode="&#x2215;" horiz-adv-x="342" 
d="M-152 -25h-174l822 1543h172z" />
    <glyph glyph-name="currency" unicode="&#xa4;" 
d="M743 825h-264v-127h236l-27 -118h-207q7 -194 38 -268t104 -74q58 0 90 51.5t47 171.5l246 -99q-37 -191 -138 -289t-260 -98q-194 0 -297 149t-123 456h-153l26 118h123q-2 39 -2 62q0 16 1 33t1 32h-149l26 119h129q25 299 128.5 436.5t306.5 137.5q144 0 243.5 -96.5
t135.5 -272.5l-242 -92q-12 106 -47 158.5t-94 52.5q-69 0 -100 -72t-38 -252h289z" />
    <glyph glyph-name="guilsinglleft" unicode="&#x2039;" horiz-adv-x="526" 
d="M446 276h-239l-113 322l113 324h239l-106 -324z" />
    <glyph glyph-name="guilsinglright" unicode="&#x203a;" horiz-adv-x="526" 
d="M80 276l106 322l-106 324h239l113 -324l-113 -322h-239z" />
    <glyph glyph-name="fi" unicode="&#xf001;" horiz-adv-x="1133" 
d="M709 1421q0 65 45 111.5t110 46.5q67 0 112.5 -45.5t45.5 -112.5q0 -65 -47 -110t-111 -45q-62 0 -108.5 46.5t-46.5 108.5zM727 0v1155h279v-1155h-279zM172 0v940h-117v215h117v23q0 221 74 311t252 90h77v-252q-69 -2 -96.5 -32t-27.5 -103q0 -6 1 -18.5t1 -18.5h122
v-215h-122v-940h-281z" />
    <glyph glyph-name="fi" unicode="&#xfb01;" horiz-adv-x="1133" 
d="M709 1421q0 65 45 111.5t110 46.5q67 0 112.5 -45.5t45.5 -112.5q0 -65 -47 -110t-111 -45q-62 0 -108.5 46.5t-46.5 108.5zM727 0v1155h279v-1155h-279zM172 0v940h-117v215h117v23q0 221 74 311t252 90h77v-252q-69 -2 -96.5 -32t-27.5 -103q0 -6 1 -18.5t1 -18.5h122
v-215h-122v-940h-281z" />
    <glyph glyph-name="fl" unicode="&#xf002;" horiz-adv-x="1133" 
d="M727 0v1565h279v-1565h-279zM172 0v940h-117v215h117v29q0 211 73.5 303t239.5 92h90v-252q-69 -2 -96.5 -32t-27.5 -103q0 -6 1 -18.5t1 -18.5h122v-215h-122v-940h-281z" />
    <glyph glyph-name="fl" unicode="&#xfb02;" horiz-adv-x="1133" 
d="M727 0v1565h279v-1565h-279zM172 0v940h-117v215h117v29q0 211 73.5 303t239.5 92h90v-252q-69 -2 -96.5 -32t-27.5 -103q0 -6 1 -18.5t1 -18.5h122v-215h-122v-940h-281z" />
    <glyph glyph-name="daggerdbl" unicode="&#x2021;" 
d="M373 -123v359h-271v227h271v514h-271v227h271v361h274v-361h275v-227h-275v-514h275v-227h-275v-359h-274z" />
    <glyph glyph-name="periodcentered" unicode="&#xb7;" horiz-adv-x="512" 
d="M98 748q0 64 46 109.5t112 45.5q67 0 112.5 -44.5t45.5 -110.5t-47.5 -113t-110.5 -47q-62 0 -110 48.5t-48 111.5z" />
    <glyph glyph-name="quotesinglbase" unicode="&#x201a;" horiz-adv-x="512" 
d="M25 -170l127 465h254l-164 -465h-217z" />
    <glyph glyph-name="quotedblbase" unicode="&#x201e;" horiz-adv-x="930" 
d="M440 -170l129 465h254l-164 -465h-219zM25 -170l127 465h254l-164 -465h-217z" />
    <glyph glyph-name="perthousand" unicode="&#x2030;" horiz-adv-x="2247" 
d="M1898 131q55 0 79 50.5t24 166.5q0 114 -24.5 164.5t-78.5 50.5q-53 0 -76.5 -50t-23.5 -165q0 -114 24 -165.5t76 -51.5zM1155 131q54 0 78 50.5t24 166.5q0 114 -24 164.5t-78 50.5q-53 0 -76.5 -50t-23.5 -165q0 -114 24 -165.5t76 -51.5zM1591 348q0 183 79 278
t231 95q151 0 230 -95.5t79 -277.5q0 -180 -80 -276.5t-229 -96.5q-151 0 -230.5 96t-79.5 277zM346 928q54 0 77 49t23 166q0 115 -23.5 166t-76.5 51t-76.5 -51t-23.5 -166q0 -113 23.5 -164t76.5 -51zM37 1143q0 183 79 279t230 96t230 -96.5t79 -278.5
q0 -180 -79.5 -275.5t-229.5 -95.5q-151 0 -230 95t-79 276zM848 348q0 183 78.5 278t230.5 95q151 0 230 -95.5t79 -277.5q0 -180 -79.5 -276.5t-229.5 -96.5t-229.5 96t-79.5 277zM430 -25h-176l823 1543h170z" />
    <glyph glyph-name="Acircumflex" unicode="&#xc2;" horiz-adv-x="1081" 
d="M416 492h221l-72 493q-8 60 -15.5 151t-12.5 203h-19q-10 -133 -19 -233t-14 -127zM16 0l355 1565h327l346 -1565h-319l-43 254h-311l-52 -254h-303zM439 1989h204l174 -283h-124l-152 148l-152 -148h-124z" />
    <glyph glyph-name="Ecircumflex" unicode="&#xca;" horiz-adv-x="901" 
d="M131 0v1565h657v-246h-354v-375h354v-242h-354v-450h354v-252h-657zM349 1989h204l174 -283h-124l-152 148l-152 -148h-124z" />
    <glyph glyph-name="Aacute" unicode="&#xc1;" horiz-adv-x="1081" 
d="M416 492h221l-72 493q-8 60 -15.5 151t-12.5 203h-19q-10 -133 -19 -233t-14 -127zM16 0l355 1565h327l346 -1565h-319l-43 254h-311l-52 -254h-303zM574 1989h256l-305 -283h-125z" />
    <glyph glyph-name="Edieresis" unicode="&#xcb;" horiz-adv-x="901" 
d="M131 0v1565h657v-246h-354v-375h354v-242h-354v-450h354v-252h-657zM512 1966h220v-237h-220v237zM170 1966h220v-237h-220v237z" />
    <glyph glyph-name="Egrave" unicode="&#xc8;" horiz-adv-x="901" 
d="M131 0v1565h657v-246h-354v-375h354v-242h-354v-450h354v-252h-657zM162 1989h256l174 -283h-125z" />
    <glyph glyph-name="Iacute" unicode="&#xcd;" horiz-adv-x="563" 
d="M434 0h-303v1565h303v-1565zM316 1989h256l-305 -283h-125z" />
    <glyph glyph-name="Icircumflex" unicode="&#xce;" horiz-adv-x="563" 
d="M434 0h-303v1565h303v-1565zM181 1989h204l174 -283h-124l-152 148l-152 -148h-124z" />
    <glyph glyph-name="Idieresis" unicode="&#xcf;" horiz-adv-x="563" 
d="M434 0h-303v1565h303v-1565zM344 1966h220v-237h-220v237zM2 1966h220v-237h-220v237z" />
    <glyph glyph-name="Igrave" unicode="&#xcc;" horiz-adv-x="563" 
d="M434 0h-303v1565h303v-1565zM-6 1989h256l174 -283h-125z" />
    <glyph glyph-name="Oacute" unicode="&#xd3;" horiz-adv-x="1096" 
d="M399 791q0 -321 33.5 -442.5t114.5 -121.5q82 0 115.5 121.5t33.5 442.5q0 316 -34 440.5t-115 124.5q-82 0 -115 -120.5t-33 -444.5zM1010 752q0 -394 -115.5 -588.5t-347.5 -194.5q-236 0 -348.5 198.5t-112.5 614.5q0 417 112.5 615t348.5 198q241 0 352 -201
t111 -642zM582 1989h256l-305 -283h-125z" />
    <glyph glyph-name="Ocircumflex" unicode="&#xd4;" horiz-adv-x="1096" 
d="M399 791q0 -321 33.5 -442.5t114.5 -121.5q82 0 115.5 121.5t33.5 442.5q0 316 -34 440.5t-115 124.5q-82 0 -115 -120.5t-33 -444.5zM1010 752q0 -394 -115.5 -588.5t-347.5 -194.5q-236 0 -348.5 198.5t-112.5 614.5q0 417 112.5 615t348.5 198q241 0 352 -201
t111 -642zM447 1989h204l174 -283h-124l-152 148l-152 -148h-124z" />
    <glyph glyph-name="apple" unicode="&#xf000;" horiz-adv-x="1618" 
d="M836 1216q-1 6 -1.5 14t-0.5 23q0 124 95 229.5t236 131.5q1 -10 1.5 -23t0.5 -39q0 -131 -103.5 -234.5t-203.5 -103.5h-8q-3 0 -7.5 1t-8.5 1zM1505 403q-114 -247 -205 -342.5t-204 -95.5q-50 0 -131.5 33t-122.5 33q-45 0 -131 -33t-127 -33q-64 0 -128.5 44
t-129.5 132q-102 140 -157.5 295.5t-55.5 300.5q0 219 125 356.5t323 137.5q68 0 155 -34t124 -34q34 0 121.5 35t152.5 35q110 0 198 -40t161 -124q-102 -65 -151.5 -145.5t-49.5 -182.5q0 -113 60 -200t173 -138z" />
    <glyph glyph-name="Ograve" unicode="&#xd2;" horiz-adv-x="1096" 
d="M399 791q0 -321 33.5 -442.5t114.5 -121.5q82 0 115.5 121.5t33.5 442.5q0 316 -34 440.5t-115 124.5q-82 0 -115 -120.5t-33 -444.5zM1010 752q0 -394 -115.5 -588.5t-347.5 -194.5q-236 0 -348.5 198.5t-112.5 614.5q0 417 112.5 615t348.5 198q241 0 352 -201
t111 -642zM260 1989h256l174 -283h-125z" />
    <glyph glyph-name="Uacute" unicode="&#xda;" horiz-adv-x="1104" 
d="M121 514v1051h303v-1053q0 -167 28.5 -228t98.5 -61q71 0 100 61.5t29 227.5v1053h303v-1051q0 -279 -105.5 -412t-326.5 -133t-325.5 133t-104.5 412zM586 1989h256l-305 -283h-125z" />
    <glyph glyph-name="Ucircumflex" unicode="&#xdb;" horiz-adv-x="1104" 
d="M121 514v1051h303v-1053q0 -167 28.5 -228t98.5 -61q71 0 100 61.5t29 227.5v1053h303v-1051q0 -279 -105.5 -412t-326.5 -133t-325.5 133t-104.5 412zM451 1989h204l174 -283h-124l-152 148l-152 -148h-124z" />
    <glyph glyph-name="Ugrave" unicode="&#xd9;" horiz-adv-x="1104" 
d="M121 514v1051h303v-1053q0 -167 28.5 -228t98.5 -61q71 0 100 61.5t29 227.5v1053h303v-1051q0 -279 -105.5 -412t-326.5 -133t-325.5 133t-104.5 412zM264 1989h256l174 -283h-125z" />
    <glyph glyph-name="dotlessi" unicode="&#x131;" horiz-adv-x="541" 
d="M131 0v1155h279v-1155h-279z" />
    <glyph glyph-name="circumflex" unicode="&#x2c6;" 
d="M410 1573h204l174 -283h-124l-152 148l-152 -148h-124z" />
    <glyph glyph-name="tilde" unicode="&#x2dc;" 
d="M705 1559h88q-19 -118 -67.5 -176t-127.5 -58q-10 0 -21 1.5t-22 4.5l-121 37q-7 3 -15 4.5t-18 1.5q-32 0 -53 -18.5t-29 -55.5h-88q20 117 64.5 175.5t114.5 58.5q11 0 26 -2.5t35 -7.5l111 -33q12 -3 23.5 -4.5t23.5 -1.5q29 0 48.5 18.5t27.5 55.5z" />
    <glyph glyph-name="macron" unicode="&#xaf;" 
d="M252 1511h520v-161h-520v161z" />
    <glyph glyph-name="breve" unicode="&#x2d8;" 
d="M238 1573h114q11 -64 49 -92.5t111 -28.5q75 0 113.5 29.5t46.5 91.5h114q-13 -147 -79.5 -215t-194.5 -68t-194.5 68t-79.5 215z" />
    <glyph glyph-name="dotaccent" unicode="&#x2d9;" 
d="M406 1546h212v-229h-212v229z" />
    <glyph glyph-name="ring" unicode="&#x2da;" 
d="M515 1597q-38 0 -64.5 -26.5t-26.5 -63.5q0 -35 26.5 -60.5t63.5 -25.5q36 0 61 25t25 61q0 38 -24.5 63.5t-60.5 26.5zM512 1726q89 0 153 -64t64 -153q0 -90 -63 -153.5t-154 -63.5t-154 63.5t-63 153.5q0 89 64 153t153 64z" />
    <glyph glyph-name="cedilla" unicode="&#xb8;" 
d="M444 0h115v-83q98 -9 149.5 -58.5t51.5 -134.5q0 -100 -66.5 -154.5t-187.5 -54.5q-41 0 -98.5 7t-135.5 21v138q98 -16 143 -21.5t70 -5.5q44 0 65 17.5t21 54.5q0 31 -25 46t-79 15h-23v213z" />
    <glyph glyph-name="hungarumlaut" unicode="&#x2dd;" 
d="M727 1573h242l-295 -283h-111zM412 1573h231l-264 -283h-96z" />
    <glyph glyph-name="ogonek" unicode="&#x2db;" 
d="M524 0h109q-65 -59 -92 -104.5t-27 -92.5q0 -41 18.5 -60t57.5 -19h84v-191h-135q-93 0 -150 54t-57 143q0 75 46 139.5t146 130.5z" />
    <glyph glyph-name="caron" unicode="&#x2c7;" 
d="M236 1573h124l152 -148l152 148h124l-174 -283h-204z" />
    <glyph glyph-name="Lslash" unicode="&#x141;" horiz-adv-x="844" 
d="M160 0v670l-131 -88v217l131 90v676h303v-512l176 123v-220l-176 -120v-584h354v-252h-657z" />
    <glyph glyph-name="lslash" unicode="&#x142;" horiz-adv-x="612" 
d="M166 0v637l-137 -90v170l137 96v752h280v-598l138 90v-170l-138 -96v-791h-280z" />
    <glyph glyph-name="Scaron" unicode="&#x160;" horiz-adv-x="940" 
d="M31 358l268 72q12 -98 56 -151.5t112 -53.5q60 0 97.5 43t37.5 113q0 66 -38.5 125t-176.5 176q-190 161 -257 270.5t-67 235.5q0 183 112.5 295t295.5 112q175 0 281.5 -87.5t138.5 -258.5l-248 -86q-11 95 -49.5 144t-101.5 49q-59 0 -95.5 -39t-36.5 -103
q0 -112 199 -276q48 -40 74 -61q143 -125 201.5 -230t58.5 -231q0 -206 -117.5 -326.5t-318.5 -120.5q-177 0 -288.5 102.5t-137.5 286.5zM195 1989h124l152 -148l152 148h124l-174 -283h-204z" />
    <glyph glyph-name="scaron" unicode="&#x161;" horiz-adv-x="854" 
d="M70 193l202 147q26 -66 65 -102.5t83 -36.5q41 0 70.5 30t29.5 72q0 73 -157 174q-23 15 -35 23q-131 84 -184.5 164t-53.5 184q0 143 102.5 238.5t256.5 95.5q113 0 200.5 -57.5t130.5 -159.5l-186 -125q-15 56 -54.5 91.5t-86.5 35.5t-76 -26.5t-29 -68.5
q0 -70 145 -159q59 -36 91 -58q108 -73 156 -150.5t48 -176.5q0 -159 -100.5 -256t-267.5 -97q-116 0 -206.5 56.5t-143.5 161.5zM152 1573h124l152 -148l152 148h124l-174 -283h-204z" />
    <glyph glyph-name="Zcaron" unicode="&#x17d;" horiz-adv-x="891" 
d="M27 0l452 1319h-418v246h801l-444 -1319h381v-246h-772zM170 1989h124l152 -148l152 148h124l-174 -283h-204z" />
    <glyph glyph-name="zcaron" unicode="&#x17e;" horiz-adv-x="797" 
d="M23 0l391 932h-340v223h710l-378 -917h348v-238h-731zM123 1573h124l152 -148l152 148h124l-174 -283h-204z" />
    <glyph glyph-name="brokenbar" unicode="&#xa6;" 
d="M410 408h206v-758h-206v758zM410 1432h206v-758h-206v758z" />
    <glyph glyph-name="Eth" unicode="&#xd0;" horiz-adv-x="1130" 
d="M463 244h8q148 0 209 120t61 420q0 306 -59.5 423.5t-206.5 117.5h-12v-407h135v-181h-135v-493zM160 0v737h-131v181h131v647h305q316 0 453 -173.5t137 -572.5q0 -425 -135.5 -622t-427.5 -197h-332z" />
    <glyph glyph-name="eth" unicode="&#xf0;" horiz-adv-x="973" 
d="M481 1182q-16 37 -33 67.5t-36 55.5l-209 -121l-60 100l181 107q-30 20 -63 38.5t-71 36.5l60 113q63 -23 116.5 -49.5t100.5 -59.5l219 127l57 -104l-174 -98q170 -133 251 -333t81 -484q0 -305 -102.5 -453t-313.5 -148q-209 0 -311 148.5t-102 452.5t98 448.5
t311 155.5zM485 211q68 0 96.5 83.5t28.5 287.5q0 201 -29 286.5t-96 85.5q-66 0 -95.5 -87t-29.5 -285q0 -199 29.5 -285t95.5 -86z" />
    <glyph glyph-name="Yacute" unicode="&#xdd;" horiz-adv-x="1006" 
d="M358 0v639l-354 926h330l117 -410q28 -97 43 -172t24 -154q11 99 27 183t37 155l118 398h322l-358 -936v-629h-306zM537 1989h256l-305 -283h-125z" />
    <glyph glyph-name="yacute" unicode="&#xfd;" horiz-adv-x="891" 
d="M205 -403l112 436l-297 1122h302l73 -422q9 -45 21 -155t24 -261h19q18 148 37 267.5t34 187.5l88 383h281l-418 -1558h-276zM479 1573h256l-305 -283h-125z" />
    <glyph glyph-name="Thorn" unicode="&#xde;" horiz-adv-x="1010" 
d="M434 1130v-577h12q98 0 148.5 74.5t50.5 218.5q0 141 -51.5 210.5t-159.5 73.5zM131 0v1565h303v-203h51q237 0 353 -130t116 -394q0 -248 -129.5 -387.5t-361.5 -139.5h-19h-10v-311h-303z" />
    <glyph glyph-name="thorn" unicode="&#xfe;" horiz-adv-x="1008" 
d="M127 -403v1968h281v-621q32 120 93 180t150 60q136 0 202.5 -148t66.5 -450q0 -289 -72.5 -441.5t-208.5 -152.5q-79 0 -137 58.5t-94 174.5v-628h-281zM393 594q0 -177 30.5 -262.5t92.5 -85.5q58 0 86.5 82.5t28.5 251.5q0 184 -28 266t-89 82q-59 0 -90 -85.5
t-31 -248.5z" />
    <glyph glyph-name="minus" unicode="&#x2212;" horiz-adv-x="1706" 
d="M254 713h1198v-203h-1198v203z" />
    <glyph glyph-name="multiply" unicode="&#xd7;" horiz-adv-x="1706" 
d="M416 1202l450 -450l451 450l141 -139l-450 -453l450 -450l-141 -140l-451 451l-450 -451l-140 140l451 450l-451 453z" />
    <glyph glyph-name="onesuperior" unicode="&#xb9;" horiz-adv-x="676" 
d="M258 596v674q-28 -20 -57.5 -35.5t-61.5 -28.5v144q88 39 145.5 76t102.5 81h57v-911h-186z" />
    <glyph glyph-name="twosuperior" unicode="&#xb2;" horiz-adv-x="676" 
d="M37 596l303 518q36 63 47.5 97t11.5 65q0 36 -18 57t-49 21q-37 0 -56.5 -30t-19.5 -87v-18h-186v20q0 129 68 196.5t198 67.5q124 0 192 -59t68 -168q0 -58 -20 -115t-84 -157l-156 -244h233v-164h-532z" />
    <glyph glyph-name="threesuperior" unicode="&#xb3;" horiz-adv-x="676" 
d="M49 891h189v-14q0 -74 19 -110t58 -36q43 0 65.5 41.5t22.5 120.5q0 82 -20.5 121t-65.5 39q-15 0 -32 -7t-41 -22l-80 80l172 231h-246v156h526l-225 -313q4 0 11 1q21 3 28 3q72 0 120 -75.5t48 -195.5q0 -157 -76.5 -243t-216.5 -86q-123 0 -190.5 73.5t-67.5 206.5
q0 4 1 14t1 15z" />
    <glyph glyph-name="onequarter" unicode="&#xbc;" horiz-adv-x="1632" 
d="M1329 287v166q0 47 5.5 103.5t17.5 125.5q-15 -36 -30.5 -69.5t-31.5 -63.5l-135 -262h174zM1329 0v145h-289v150l289 541h174v-549h82v-142h-82v-145h-174zM494 -25h-175l822 1543h172zM248 657v629q-26 -17 -54 -31.5t-61 -27.5v133q85 37 140.5 72t97.5 75h55v-850
h-178z" />
    <glyph glyph-name="onehalf" unicode="&#xbd;" horiz-adv-x="1632" 
d="M1022 0l289 483q36 61 46.5 91.5t10.5 60.5q0 33 -17.5 53.5t-45.5 20.5q-35 0 -53.5 -28.5t-18.5 -82.5v-18h-180v20q0 121 65 184.5t189 63.5q119 0 184 -55.5t65 -157.5q0 -54 -19 -107t-81 -149l-149 -225h223v-154h-508zM494 -25h-175l822 1543h172zM248 657v629
q-26 -17 -54 -31.5t-61 -27.5v133q85 37 140.5 72t97.5 75h55v-850h-178z" />
    <glyph glyph-name="threequarters" unicode="&#xbe;" horiz-adv-x="1632" 
d="M1329 287v166q0 47 5.5 103.5t17.5 125.5q-15 -36 -30.5 -69.5t-31.5 -63.5l-135 -262h174zM1329 0v145h-289v150l289 541h174v-549h82v-142h-82v-145h-174zM494 -25h-175l822 1543h172zM47 932h178v-12q0 -69 19 -102.5t57 -33.5q41 0 62.5 39t21.5 113q0 76 -20 111.5
t-62 35.5q-16 0 -32.5 -6t-37.5 -20l-77 73l163 218h-233v145h502l-215 -293q5 1 13 2q17 2 24 2q69 0 114 -69.5t45 -182.5q0 -147 -73 -228t-205 -81q-117 0 -181.5 69t-64.5 193q0 4 1 13.5t1 13.5z" />
    <glyph glyph-name="franc" unicode="&#x20a3;" horiz-adv-x="1616" 
d="M131 0v1565h657v-246h-354v-375h354v-242h-354v-702h-303zM1004 2v1153h266v-287h13q34 152 112 232t193 80h12v-299q-13 1 -27.5 1.5t-40.5 0.5q-127 0 -187 -64t-60 -198v-619h-281z" />
    <glyph glyph-name="Gbreve" unicode="&#x11e;" horiz-adv-x="1114" 
d="M535 692v248h485v-332q0 -310 -122 -474.5t-351 -164.5q-234 0 -347.5 198t-113.5 607q0 424 119 623.5t370 199.5q163 0 262 -79t150 -248l-270 -94q-19 87 -54.5 127t-93.5 40q-93 0 -131.5 -122t-38.5 -447q0 -314 37 -431.5t127 -117.5q74 0 114 84.5t40 241.5v141
h-182zM283 1989h114q11 -64 49 -92.5t111 -28.5q75 0 113.5 29.5t46.5 91.5h114q-13 -147 -79.5 -215t-194.5 -68t-194.5 68t-79.5 215z" />
    <glyph glyph-name="gbreve" unicode="&#x11f;" horiz-adv-x="1008" 
d="M614 588q0 163 -30.5 248.5t-89.5 85.5q-62 0 -89.5 -81t-27.5 -266q0 -171 28 -253t87 -82q62 0 92 85.5t30 262.5zM600 45v176q-37 -116 -95 -174.5t-136 -58.5q-136 0 -207.5 152.5t-71.5 441.5q0 301 66.5 448.5t201.5 147.5q89 0 147.5 -58t94.5 -182v217h281v-985
q0 -154 -12 -243t-38 -142q-52 -107 -143 -160t-221 -53q-119 0 -212 48t-144 136l211 144q23 -51 55.5 -76t77.5 -25q74 0 109.5 60.5t35.5 185.5zM230 1573h114q11 -64 49 -92.5t111 -28.5q75 0 113.5 29.5t46.5 91.5h114q-13 -147 -79.5 -215t-194.5 -68t-194.5 68
t-79.5 215z" />
    <glyph glyph-name="Idotaccent" unicode="&#x130;" horiz-adv-x="563" 
d="M434 0h-303v1565h303v-1565zM177 1962h212v-229h-212v229z" />
    <glyph glyph-name="Scedilla" unicode="&#x15e;" horiz-adv-x="940" 
d="M31 358l268 72q12 -98 56 -151.5t112 -53.5q60 0 97.5 43t37.5 113q0 66 -38.5 125t-176.5 176q-190 161 -257 270.5t-67 235.5q0 183 112.5 295t295.5 112q175 0 281.5 -87.5t138.5 -258.5l-248 -86q-11 95 -49.5 144t-101.5 49q-59 0 -95.5 -39t-36.5 -103
q0 -112 199 -276q48 -40 74 -61q143 -125 201.5 -230t58.5 -231q0 -206 -117.5 -326.5t-318.5 -120.5q-177 0 -288.5 102.5t-137.5 286.5zM403 0h115v-83q98 -9 149.5 -58.5t51.5 -134.5q0 -100 -66.5 -154.5t-187.5 -54.5q-41 0 -98.5 7t-135.5 21v138q98 -16 143 -21.5
t70 -5.5q44 0 65 17.5t21 54.5q0 31 -25 46t-79 15h-23v213z" />
    <glyph glyph-name="scedilla" unicode="&#x15f;" horiz-adv-x="854" 
d="M70 193l202 147q26 -66 65 -102.5t83 -36.5q41 0 70.5 30t29.5 72q0 73 -157 174q-23 15 -35 23q-131 84 -184.5 164t-53.5 184q0 143 102.5 238.5t256.5 95.5q113 0 200.5 -57.5t130.5 -159.5l-186 -125q-15 56 -54.5 91.5t-86.5 35.5t-76 -26.5t-29 -68.5
q0 -70 145 -159q59 -36 91 -58q108 -73 156 -150.5t48 -176.5q0 -159 -100.5 -256t-267.5 -97q-116 0 -206.5 56.5t-143.5 161.5zM360 0h115v-83q98 -9 149.5 -58.5t51.5 -134.5q0 -100 -66.5 -154.5t-187.5 -54.5q-41 0 -98.5 7t-135.5 21v138q98 -16 143 -21.5t70 -5.5
q44 0 65 17.5t21 54.5q0 31 -25 46t-79 15h-23v213z" />
    <glyph glyph-name="Cacute" unicode="&#x106;" horiz-adv-x="1053" 
d="M1006 420q-34 -220 -151.5 -335.5t-307.5 -115.5q-234 0 -347.5 198t-113.5 607q0 424 119 623.5t370 199.5q177 0 283.5 -99t145.5 -302l-281 -94q-11 126 -48 183.5t-106 57.5q-93 0 -131.5 -122t-38.5 -447q0 -314 37 -431.5t127 -117.5q67 0 107.5 72.5t56.5 218.5z
M582 1989h256l-305 -283h-125z" />
    <glyph glyph-name="cacute" unicode="&#x107;" horiz-adv-x="840" 
d="M815 303q-32 -159 -124.5 -243.5t-235.5 -84.5q-197 0 -290 146t-93 454q0 324 94.5 465.5t308.5 141.5q147 0 234 -82t104 -236l-250 -55q0 70 -25 108.5t-71 38.5q-58 0 -80 -78t-22 -350q0 -176 23 -244.5t79 -68.5q39 0 64 39t40 125zM479 1573h256l-305 -283h-125z
" />
    <glyph glyph-name="Ccaron" unicode="&#x10c;" horiz-adv-x="1053" 
d="M1006 420q-34 -220 -151.5 -335.5t-307.5 -115.5q-234 0 -347.5 198t-113.5 607q0 424 119 623.5t370 199.5q177 0 283.5 -99t145.5 -302l-281 -94q-11 126 -48 183.5t-106 57.5q-93 0 -131.5 -122t-38.5 -447q0 -314 37 -431.5t127 -117.5q67 0 107.5 72.5t56.5 218.5z
M273 1989h124l152 -148l152 148h124l-174 -283h-204z" />
    <glyph glyph-name="ccaron" unicode="&#x10d;" horiz-adv-x="840" 
d="M815 303q-32 -159 -124.5 -243.5t-235.5 -84.5q-197 0 -290 146t-93 454q0 324 94.5 465.5t308.5 141.5q147 0 234 -82t104 -236l-250 -55q0 70 -25 108.5t-71 38.5q-58 0 -80 -78t-22 -350q0 -176 23 -244.5t79 -68.5q39 0 64 39t40 125zM170 1573h124l152 -148l152 148
h124l-174 -283h-204z" />
    <glyph glyph-name="dcroat" unicode="&#x111;" horiz-adv-x="1036" 
d="M600 0v221q-37 -116 -95 -174.5t-136 -58.5q-136 0 -207.5 152.5t-71.5 441.5q0 301 66.5 448.5t201.5 147.5q89 0 147.5 -58t94.5 -182v332h-240v141h240v154h281v-154h127v-141h-127v-1270h-281zM614 588q0 163 -30.5 248.5t-89.5 85.5q-62 0 -89.5 -81t-27.5 -266
q0 -171 28 -253t87 -82q62 0 92 85.5t30 262.5z" />
    <glyph glyph-name="sfthyphen" unicode="&#xad;" horiz-adv-x="664" 
d="M100 475v250h463v-250h-463z" />
    <glyph glyph-name="periodcentered" unicode="&#x2219;" horiz-adv-x="512" 
d="M98 748q0 64 46 109.5t112 45.5q67 0 112.5 -44.5t45.5 -110.5t-47.5 -113t-110.5 -47q-62 0 -110 48.5t-48 111.5z" />
    <glyph glyph-name="Euro" 
d="M743 825h-264v-127h236l-27 -118h-207q7 -194 38 -268t104 -74q58 0 90 51.5t47 171.5l246 -99q-37 -191 -138 -289t-260 -98q-194 0 -297 149t-123 456h-153l26 118h123q-2 39 -2 62q0 16 1 33t1 32h-149l26 119h129q25 299 128.5 436.5t306.5 137.5q144 0 243.5 -96.5
t135.5 -272.5l-242 -92q-12 106 -47 158.5t-94 52.5q-69 0 -100 -72t-38 -252h289z" />
    <glyph glyph-name="Euro" unicode="&#x20ac;" 
d="M743 825h-264v-127h236l-27 -118h-207q7 -194 38 -268t104 -74q58 0 90 51.5t47 171.5l246 -99q-37 -191 -138 -289t-260 -98q-194 0 -297 149t-123 456h-153l26 118h123q-2 39 -2 62q0 16 1 33t1 32h-149l26 119h129q25 299 128.5 436.5t306.5 137.5q144 0 243.5 -96.5
t135.5 -272.5l-242 -92q-12 106 -47 158.5t-94 52.5q-69 0 -100 -72t-38 -252h289z" />
    </font>
</defs>
</svg>
